<svg width="3996" height="3996" viewBox="0 0 3996 3996" fill="none" xmlns="http://www.w3.org/2000/svg">
<path d="M3292 1171.13C3278.67 1157.8 3256.45 1153.36 3238.67 1157.8L3149.8 1188.91C3203.12 1126.7 3238.67 1060.05 3260.89 997.836C3269.78 975.618 3265.33 957.845 3252 944.511C3238.67 931.182 3216.45 926.737 3198.67 935.621C3074.26 988.947 2967.61 1033.38 2878.74 1060.04C2878.74 1064.49 2874.29 1060.04 2869.85 1060.04C2798.75 1020.05 2625.45 931.177 2501.03 931.177C2185.53 935.621 1932.24 1202.24 1932.24 1526.62V1544.4C1470.11 1455.52 1216.82 1322.21 941.317 1033.38L896.89 988.942L870.228 1042.27C719.145 1331.1 825.791 1593.28 999.092 1771.02C919.109 1757.69 865.783 1731.03 816.902 1691.04C799.128 1677.71 776.91 1673.27 754.692 1686.59C736.919 1695.48 728.029 1722.14 732.474 1744.36C794.684 1953.21 950.211 2122.07 1119.07 2224.27C1039.08 2224.27 972.429 2215.38 905.775 2170.94C888.001 2162.05 861.338 2162.05 843.565 2175.39C825.791 2188.72 816.902 2210.94 825.791 2233.15C905.775 2459.78 1061.3 2579.76 1310.15 2610.86C1181.28 2686.41 1012.43 2748.62 750.253 2753.06C723.59 2753.06 701.372 2770.83 692.487 2793.05C683.598 2819.72 692.487 2841.93 710.261 2859.71C870.233 2988.57 1225.72 3064.12 1665.64 3064.12C2447.71 3064.12 3087.59 2366.47 3087.59 1508.85V1495.52C3185.36 1446.64 3265.34 1353.32 3305.33 1224.46C3309.77 1206.68 3305.33 1184.46 3292 1171.13ZM3025.38 1424.42L2998.72 1433.3V1508.85C2998.72 2317.59 2398.83 2975.24 1665.63 2975.24C1261.26 2975.24 990.203 2908.59 843.565 2837.49C1150.17 2815.27 1327.92 2717.51 1465.67 2610.86L1576.76 2530.88H1443.46C1190.17 2530.88 1034.64 2459.78 945.771 2290.92C1025.75 2317.59 1110.18 2317.59 1203.5 2313.14C1239.05 2308.7 1274.6 2308.7 1310.15 2308.7L1323.48 2219.82C1154.62 2170.94 954.656 2019.86 856.894 1815.46C945.766 1855.45 1043.52 1864.34 1132.4 1864.34H1270.15L1159.06 1784.35C1065.75 1717.7 790.244 1482.19 923.553 1144.47C1207.94 1424.42 1479.01 1553.28 1967.8 1642.15L2021.13 1651.04V1526.62C2021.13 1251.12 2234.42 1024.49 2501.04 1020.05C2603.24 1015.6 2772.1 1108.92 2820.98 1135.58C2847.64 1148.91 2874.3 1153.36 2900.96 1144.47C2967.61 1122.26 3047.6 1091.15 3136.47 1055.6C3096.48 1122.26 3043.15 1184.47 2972.06 1242.24C2954.29 1255.56 2949.84 1282.23 2958.73 1304.45C2967.62 1326.66 2994.28 1335.55 3016.5 1326.66L3189.8 1268.9C3158.69 1326.66 3109.81 1393.31 3025.38 1424.42Z" fill="black"/>
<circle cx="1998" cy="1998" r="1938" stroke="black" stroke-width="120"/>
</svg>
