<svg width="512" height="512" viewBox="0 0 512 512" fill="none" xmlns="http://www.w3.org/2000/svg">
<path d="M457 242H360.729C367.032 232.179 370.763 220.566 370.972 208.104C418.628 191.133 451 146.008 451 94.55V87C451 56.673 426.327 32 396 32H371V15C371 6.716 364.284 0 356 0H156C147.716 0 141 6.716 141 15V207C141 219.881 144.782 231.888 151.271 242H57C51.18 242 45.885 245.367 43.416 250.638C40.947 255.909 41.75 262.132 45.477 266.603C68.427 294.144 69.723 333.41 49.384 362.285C21.685 365.107 0 388.569 0 417V457C0 487.327 24.673 512 55 512H455C460.82 512 466.115 508.633 468.584 503.362C471.053 498.091 470.25 491.868 466.523 487.397C443.573 459.856 442.277 420.59 462.616 391.715C490.315 388.893 512 365.431 512 337V297C512 266.673 487.327 242 457 242ZM371 62H396C409.785 62 421 73.215 421 87V94.55C421 129.446 401.188 160.478 371 175.565V62ZM171 30H341V207C341 226.299 325.299 242 306 242H206C186.701 242 171 226.299 171 207V30ZM75 452H419.313C420.74 462.273 423.634 472.385 428.009 482H55C41.215 482 30 470.785 30 457V417C30 403.215 41.215 392 55 392H428.009C423.635 401.615 420.74 411.727 419.313 422H75C66.716 422 60 428.716 60 437C60 445.284 66.716 452 75 452ZM482 337C482 350.785 470.785 362 457 362H83.991C88.365 352.385 91.26 342.273 92.687 332H437C445.284 332 452 325.284 452 317C452 308.716 445.284 302 437 302H92.687C91.26 291.727 88.366 281.615 83.991 272H457C470.785 272 482 283.215 482 297V337Z" fill="black"/>
<path d="M437 332H92.6865V302H437C445.284 302 452 308.716 452 317C452 325.284 445.284 332 437 332Z" fill="#D8BD03"/>
</svg>
