<svg width="3996" height="3996" viewBox="0 0 3996 3996" fill="none" xmlns="http://www.w3.org/2000/svg">
<path d="M1240.65 785C1157.09 785 1081.13 815.387 1024.16 872.36C963.387 933.131 933 1009.09 933 1088.85C933 1172.41 967.184 1248.38 1024.16 1305.35C1081.13 1362.33 1160.89 1396.51 1236.86 1392.71C1236.86 1392.71 1240.65 1392.71 1244.45 1392.71C1320.42 1392.71 1392.58 1362.33 1449.56 1305.35C1506.53 1248.38 1540.71 1172.41 1540.71 1088.85C1544.51 1009.09 1510.33 933.126 1453.35 876.153C1396.38 815.383 1320.42 785 1240.65 785ZM1396.38 1252.18C1354.6 1293.96 1297.63 1320.55 1236.86 1316.75C1179.88 1316.75 1119.11 1293.96 1077.33 1252.18C1031.75 1210.4 1008.97 1149.63 1008.97 1088.86C1008.97 1028.09 1031.75 971.116 1077.33 925.537C1119.11 883.755 1176.09 860.966 1240.65 860.966C1297.63 860.966 1354.6 883.755 1396.38 925.537C1441.96 971.116 1464.75 1028.09 1464.75 1088.86C1464.75 1149.63 1441.96 1210.4 1396.38 1252.18Z" fill="black"/>
<path d="M1389 1469H1081.2C1020.4 1469 971 1518.37 971 1582.93V2912.07C971 2972.83 1024.2 3026 1085 3026H1389C1449.8 3026 1503 2972.83 1503 2915.87V1582.93C1503 1522.16 1449.8 1469 1389 1469ZM1427 2915.87C1427 2934.86 1408 2950.05 1389 2950.05H1085C1066 2950.05 1047 2931.06 1047 2912.07V1582.93C1047 1563.94 1062.2 1544.95 1081.2 1544.95H1389C1408 1544.95 1427 1563.94 1427 1582.93V2915.87Z" fill="black"/>
<path d="M2679.93 1431H2600.12C2451.9 1431 2311.28 1495.56 2220.07 1598.1V1544.93C2220.07 1506.95 2182.07 1468.97 2144.06 1468.97H1764.01C1729.81 1468.97 1688 1499.36 1688 1541.13V2957.64C1688 2999.41 1729.81 3026 1764.01 3026H2182.07C2216.27 3026 2258.08 2999.41 2258.08 2957.64V2137.35C2258.08 2012.03 2349.29 1913.29 2467.1 1913.29C2527.91 1913.29 2584.92 1936.08 2626.72 1977.85C2664.73 2012.03 2679.93 2065.2 2679.93 2133.56V2950.05C2679.93 2988.02 2717.93 3026 2755.94 3026H3135.99C3173.99 3026 3212 2988.03 3212 2950.05V1970.26C3212 1666.45 2980.17 1431 2679.93 1431ZM3135.98 2946.25L3132.19 2950.05H2759.74L2755.94 2133.56C2755.94 2042.42 2733.13 1974.06 2683.73 1924.69C2626.72 1867.73 2550.71 1837.35 2470.9 1837.35C2311.28 1841.14 2185.86 1970.26 2185.86 2137.36V2950.05H1767.81V1544.93H2144.06L2147.86 1548.72V1787.97L2250.47 1685.44L2254.27 1681.64C2330.28 1575.31 2463.29 1506.95 2603.92 1506.95H2683.73C2938.36 1506.95 3135.98 1712.03 3135.98 1970.26V2946.25V2946.25Z" fill="black"/>
<circle cx="1998" cy="1998" r="1938" stroke="black" stroke-width="120"/>
</svg>
