<svg width="3522" height="3522" viewBox="0 0 3522 3522" fill="none" xmlns="http://www.w3.org/2000/svg">
<path d="M3418.82 832.348H2634.62V220.125C2634.62 163.14 2588.42 116.941 2531.44 116.941H103.184C46.1987 116.941 0 163.14 0 220.125V2889.14C0 3173.62 231.441 3405.06 515.918 3405.06H3006.08C3290.56 3405.06 3522 3173.62 3522 2889.14V935.531C3522 878.546 3475.8 832.348 3418.82 832.348ZM515.918 3198.69C345.232 3198.69 206.367 3059.83 206.367 2889.14V323.309H2428.25C2428.25 3050.56 2426.95 2898.94 2430.62 2937.82C2439.59 3033.48 2475.26 3123.68 2531.68 3198.69H515.918ZM3315.63 2889.14C3315.63 3059.83 3176.77 3198.69 3006.08 3198.69C2982.93 3198.69 2966.91 3198.69 2944.17 3198.69C2773.49 3198.69 2634.62 3059.83 2634.62 2889.14V1038.71H3315.63V2889.14Z" fill="black"/>
<path d="M2091.19 612.223H550.312C493.328 612.223 447.129 658.421 447.129 715.406C447.129 772.391 493.328 818.59 550.312 818.59H2091.19C2148.17 818.59 2194.37 772.391 2194.37 715.406C2194.37 658.421 2148.17 612.223 2091.19 612.223Z" fill="black"/>
<path d="M2091.19 1052.47H550.312C493.328 1052.47 447.129 1098.67 447.129 1155.66C447.129 1212.64 493.328 1258.84 550.312 1258.84H2091.19C2148.17 1258.84 2194.37 1212.64 2194.37 1155.66C2194.37 1098.67 2148.17 1052.47 2091.19 1052.47Z" fill="black"/>
<path d="M2091.19 2703.41H550.312C493.328 2703.41 447.129 2749.61 447.129 2806.59C447.129 2863.58 493.328 2909.78 550.312 2909.78H2091.19C2148.17 2909.78 2194.37 2863.58 2194.37 2806.59C2194.37 2749.61 2148.17 2703.41 2091.19 2703.41Z" fill="black"/>
<path d="M2091.19 1492.72H1320.75C1263.77 1492.72 1217.57 1538.92 1217.57 1595.91V2366.34C1217.57 2423.33 1263.77 2469.53 1320.75 2469.53H2091.19C2148.17 2469.53 2194.37 2423.33 2194.37 2366.34V1595.91C2194.37 1538.92 2148.17 1492.72 2091.19 1492.72ZM1988 2263.16H1423.93V1699.09H1988V2263.16Z" fill="#D8BD03"/>
<path d="M550.312 1864.18H880.5C937.485 1864.18 983.684 1817.98 983.684 1761C983.684 1704.02 937.485 1657.82 880.5 1657.82H550.312C493.328 1657.82 447.129 1704.02 447.129 1761C447.129 1817.98 493.328 1864.18 550.312 1864.18Z" fill="black"/>
<path d="M550.312 2304.43H880.5C937.485 2304.43 983.684 2258.23 983.684 2201.25C983.684 2144.27 937.485 2098.07 880.5 2098.07H550.312C493.328 2098.07 447.129 2144.27 447.129 2201.25C447.129 2258.23 493.328 2304.43 550.312 2304.43Z" fill="black"/>
</svg>
