<svg width="3996" height="3996" viewBox="0 0 3996 3996" fill="none" xmlns="http://www.w3.org/2000/svg">
<circle cx="1998" cy="1998" r="1938" stroke="black" stroke-width="120"/>
<path d="M2802.24 1048H1194.78C1073.03 1048 974 1147.03 974 1268.78V2446.31C974 2568.04 1073.03 2667.07 1194.78 2667.07H1704.22L1872.92 3004.5C1902.31 3063.28 1948.08 3097 1998.5 3097C2048.92 3097 2094.69 3063.28 2124.08 3004.5L2292.8 2667.07H2802.24C2923.97 2667.07 3023 2568.04 3023 2446.31V1268.78C3023 1147.03 2923.97 1048 2802.24 1048V1048ZM2902.94 2446.31C2902.94 2501.83 2857.76 2547.01 2802.24 2547.01H2255.7C2232.96 2547.01 2212.18 2559.86 2202.01 2580.2L2016.7 2950.8C2009.22 2965.75 2002.2 2973.1 1998.5 2975.91C1994.8 2973.1 1987.78 2965.75 1980.3 2950.8L1794.99 2580.2C1784.83 2559.86 1764.04 2547.01 1741.31 2547.01H1194.78C1139.24 2547.01 1094.06 2501.83 1094.06 2446.31V1268.78C1094.06 1213.24 1139.24 1168.06 1194.78 1168.06H2802.24C2857.76 1168.06 2902.94 1213.24 2902.94 1268.78V2446.31Z" fill="black"/>
</svg>
