<svg width="512" height="512" viewBox="0 0 512 512" fill="none" xmlns="http://www.w3.org/2000/svg">
<g clip-path="url(#clip0)">
<path d="M498.827 377.633L435.178 313.984C417.63 296.437 389.076 296.437 371.529 313.984L342.598 342.915C329.304 356.209 307.672 356.205 294.383 342.92L168.983 217.413C155.658 204.088 155.656 182.521 168.983 169.194C173.643 164.534 187.024 151.153 197.914 140.263C215.385 122.793 215.629 94.328 197.897 76.598L134.265 13.166C116.717 -4.38099 88.1641 -4.38099 70.6631 13.12C57.5671 26.102 53.3431 30.29 47.4711 36.111C-15.8089 99.39 -15.8089 202.353 47.4681 265.63L246.16 464.426C309.588 527.855 412.248 527.86 475.681 464.426L498.827 441.281C516.375 423.733 516.375 395.181 498.827 377.633ZM91.8331 34.382C97.6821 28.533 107.198 28.532 113.066 34.398L176.698 97.83C182.561 103.693 182.561 113.182 176.698 119.046L166.089 129.654L81.2791 44.844L91.8331 34.382ZM267.38 443.213L68.6871 244.415C19.7291 195.457 17.0381 118.582 60.4111 66.409L144.975 150.973C122.755 176.162 123.681 214.545 147.762 238.626L273.158 364.127L273.162 364.131C297.217 388.187 335.598 389.173 360.818 366.923L445.384 451.489C393.377 494.787 316.675 492.508 267.38 443.213ZM477.612 420.065L467.003 430.674L382.138 345.808L392.745 335.2C398.595 329.351 408.112 329.35 413.962 335.2L477.611 398.849C483.461 404.699 483.461 414.217 477.612 420.065Z" fill="black"/>
<path d="M81.5 45L60.5 66.5L145 151L166 129.5L81.5 45Z" fill="#D8BD03"/>
<path d="M382.5 345.5L361 367.5L445.5 452L467 430L382.5 345.5Z" fill="#D8BD03"/>
</g>
<defs>
<clipPath id="clip0">
<rect width="511.999" height="511.999" fill="white"/>
</clipPath>
</defs>
</svg>
