<svg xmlns="http://www.w3.org/2000/svg" viewBox="0 0 344.96 119.62" style=""><defs><style>.cls-1{fill:#dabe04;}.cls-2{fill:#fff;}.cls-3{fill:#fff;}</style></defs><g id="Capa_2" data-name="Capa 2"><g id="Capa_1-2" data-name="Capa 1"><path class="cls-1" d="M38.8,96.56,21.05,66.94a20.49,20.49,0,0,1,0-20.77L32.59,26.56A20.27,20.27,0,0,1,50,16.55H85C86.18,14.37,92.45,4,94.62,0H41.12A20.26,20.26,0,0,0,23.57,10.17L2.73,46.33a20.49,20.49,0,0,0,0,20.44L29.37,113l9.44-16.44Z"/><path class="cls-2" d="M100.47,102.94l20.85-36.17a20.49,20.49,0,0,0,0-20.44L94.62,0C92.45,4,86.18,14.37,85,16.55h0l18,29.62a20.49,20.49,0,0,1,0,20.77L91.45,86.55A20.25,20.25,0,0,1,74,96.56H38.81L29.37,113l.06.11h53.5A20.25,20.25,0,0,0,100.47,102.94Z"/><path class="cls-3" d="M344.64,25.2a1.54,1.54,0,0,0-.34-.28,1.32,1.32,0,0,0-.63-.17H298.9a1.29,1.29,0,0,0-1.29,1.3v8.82a1.29,1.29,0,0,0,1.29,1.3h15.28a2.46,2.46,0,0,1,1.26,1.77V78.17q0,.36,0,.69v1.75a1.85,1.85,0,0,0,1.85,1.86h.4a6.08,6.08,0,0,0,1.6,0h3.83a6.15,6.15,0,0,0,1.72,0h.44a1.85,1.85,0,0,0,1.85-1.86v-1.7c0-.33,0-.67,0-1s0-.76,0-1.13v-39a2,2,0,0,1,1-1.54h15.61a1.29,1.29,0,0,0,.86-.44,1.26,1.26,0,0,0,.32-.85V26.05A1.28,1.28,0,0,0,344.64,25.2Z"/><path class="cls-3" d="M240.65,71.59H216.52c-4.39-.22-4.31-1.45-4.31-8.23,0-1.9.31-3,1.41-3.45h22.26a1.41,1.41,0,0,0,1.4-1.41v-8a1.41,1.41,0,0,0-1.4-1.41H216.12c-4.11-.43-4-2.22-3.91-9.64,0-2,.42-3,1.75-3.33h26a1.42,1.42,0,0,0,1.41-1.42V33.43a7.2,7.2,0,0,0,0-.93V26.23a1.42,1.42,0,0,0-1.41-1.42H202.14a1.41,1.41,0,0,0-1.4,1.42v.95a8.41,8.41,0,0,0,0,1l0,2.14v4.3a1.34,1.34,0,0,0,0,.35c0,6.16,0,12.33,0,18.5,0,8.59.07,17.18-.05,25.76,0,2.36.51,3.24,3,3.21l4.2,0a1.65,1.65,0,0,0,.31,0h32.39a1.4,1.4,0,0,0,1.4-1.41V73A1.4,1.4,0,0,0,240.65,71.59Z"/><path class="cls-3" d="M191.15,78.36V73.87a2.2,2.2,0,0,0-2.18-2.2H162.66l-.58-.56q7.74-10.23,15.5-20.44c3.83-5,7.63-10.12,11.56-15.09l.63-.81A6.4,6.4,0,0,0,191.18,31a12.67,12.67,0,0,0,0-1.63V26a1.27,1.27,0,0,0-1.27-1.27H148.65a2.18,2.18,0,0,0-2.18,2.2v6.51a2.19,2.19,0,0,0,2.18,2.2h26.88c-3.25,4.31-6.08,8.06-8.92,11.8-6.15,8.13-12.25,16.3-18.52,24.34l-.69.89a7.49,7.49,0,0,0-.93,1.52,10.14,10.14,0,0,0-.21,6.94,2,2,0,0,0,2.33,1.48H189a2.19,2.19,0,0,0,2.18-2.2V80.1A6.7,6.7,0,0,0,191.15,78.36Z"/><path class="cls-3" d="M293.74,62.85c-1.34-7.07-6.42-10.32-12.36-12.65-4.58-1.81-9.32-3.2-13.9-5-2.62-1-4.46-2.9-4-6.08.43-3,2.72-4,5.18-4.66a19.29,19.29,0,0,1,3.66-.47h.25a23.42,23.42,0,0,1,10.56,1.87,6.4,6.4,0,0,0,1,.39c3.95,1.33,5.14-1.5,6.57-5.15,1-2.64.94-3.84-1.93-4.7a65.45,65.45,0,0,0-10.61-2.53l-.26,0h-.08c-.5-.06-1-.1-1.53-.14a53.7,53.7,0,0,0-6.74-.07,11.5,11.5,0,0,0-1.29.09c-6.22.79-11.75,2.93-14.84,8.94-4.71,9.19-1.08,19.42,8.6,23.58,4.66,2,9.65,3.2,14.43,5,2.92,1.07,6.12,2.33,5.71,6.31-.44,4.17-4,4.89-7.19,5.28a26.49,26.49,0,0,1-15.39-2.24c-3.19-1.62-4.84-1-5.88,1.29h0l0,.09s0,.08,0,.12l-1.84,4.31-.06.12a2.66,2.66,0,0,0-.16.41v0h0c-.39,1.15,0,1.91,1.36,2.47,10.59,4.55,21.36,6.26,32.26,1.42C291.92,77.74,295.15,70.24,293.74,62.85Z"/></g></g></svg>