<svg xmlns="http://www.w3.org/2000/svg" viewBox="0 0 480.88 166.76"><defs><style>.cls-1{fill:#fff;}.cls-2{fill:#9d9d9d;}</style></defs><g id="Capa_2" data-name="Capa 2"><g id="Capa_1-2" data-name="Capa 1"><path class="cls-1" d="M54.09,134.6,29.34,93.31a28.58,28.58,0,0,1,0-28.95L45.43,37a28.26,28.26,0,0,1,24.33-14h48.71C120.14,20,128.88,5.61,131.9,0H57.32A28.25,28.25,0,0,0,32.86,14.17l-29,50.42a28.53,28.53,0,0,0,0,28.49L41,157.53,54.1,134.6Z" transform="translate(0)"/><path class="cls-2" d="M140.06,143.5l29.05-50.42a28.53,28.53,0,0,0,0-28.49L131.9,0c-3,5.6-11.76,20-13.43,23.06h0l25.1,41.3a28.56,28.56,0,0,1,0,28.94l-16.09,27.34a28.24,28.24,0,0,1-24.33,13.95H54.1L41,157.53l.08.14H115.6A28.25,28.25,0,0,0,140.06,143.5Z" transform="translate(0)"/><path class="cls-1" d="M480.43,35.12a1.91,1.91,0,0,0-.47-.38,1.76,1.76,0,0,0-.88-.24H416.66a1.81,1.81,0,0,0-1.8,1.81v12.3a1.81,1.81,0,0,0,1.8,1.81H438a3.44,3.44,0,0,1,1.75,2.46V109q0,.5,0,1v2.44A2.59,2.59,0,0,0,442.3,115h.56a8.35,8.35,0,0,0,2.24,0h5.33a8,8,0,0,0,2.4,0h.61a2.59,2.59,0,0,0,2.58-2.59V110c0-.45,0-.93,0-1.45s0-1,0-1.57V52.57a2.81,2.81,0,0,1,1.45-2.15h21.76a1.8,1.8,0,0,0,1.2-.61,1.84,1.84,0,0,0,.45-1.19V36.31A1.86,1.86,0,0,0,480.43,35.12Z" transform="translate(0)"/><path class="cls-1" d="M335.47,99.79H301.83c-6.12-.3-6-2-6-11.47,0-2.65.43-4.16,2-4.81h31a2,2,0,0,0,1.95-2V70.33a2,2,0,0,0-1.95-2H301.27c-5.72-.6-5.61-3.09-5.45-13.44.05-2.75.59-4.15,2.44-4.65h36.21a2,2,0,0,0,1.95-2V46.61a7,7,0,0,0,0-1.3V36.56a2,2,0,0,0-1.95-2H281.78a2,2,0,0,0-1.95,2v1.33a12.74,12.74,0,0,0-.05,1.43c0,1,0,2,.05,3v6a1.85,1.85,0,0,0,.07.48c0,8.6,0,17.2,0,25.8,0,12,.1,23.94-.07,35.91-.05,3.29.72,4.51,4.23,4.47l5.86,0a2,2,0,0,0,.43,0h45.15a2,2,0,0,0,1.95-2V101.76A2,2,0,0,0,335.47,99.79Z" transform="translate(0)"/><path class="cls-1" d="M266.46,109.23V103a3.06,3.06,0,0,0-3-3.07H226.75l-.82-.79q10.81-14.24,21.61-28.49c5.35-7,10.64-14.11,16.12-21,.3-.37.59-.75.89-1.13a9,9,0,0,0,1.95-5.22,19.1,19.1,0,0,0,0-2.27V36.21a1.77,1.77,0,0,0-1.76-1.78H207.21a3.05,3.05,0,0,0-3,3.07v9.07a3.05,3.05,0,0,0,3,3.07h37.48c-4.53,6-8.48,11.24-12.43,16.45-8.59,11.33-17.08,22.72-25.82,33.93l-1,1.25a11,11,0,0,0-1.3,2.11c-1.5,3.24-1.07,6.7-.28,9.67.46,1.72,1.74,2.11,3.24,2.07h56.29a3,3,0,0,0,3-3.06v-.41A8.84,8.84,0,0,0,266.46,109.23Z" transform="translate(0)"/><path class="cls-1" d="M409.48,87.61c-1.87-9.85-9-14.38-17.23-17.64-6.39-2.51-13-4.45-19.39-6.94-3.65-1.42-6.21-4-5.58-8.48.59-4.13,3.79-5.56,7.22-6.5a26.27,26.27,0,0,1,5.1-.65l.34,0c3.39-.13,9.47.09,14.73,2.61a9.1,9.1,0,0,0,1.38.55c5.51,1.85,7.17-2.09,9.16-7.19,1.44-3.68,1.31-5.35-2.7-6.55a90.57,90.57,0,0,0-14.78-3.52l-.37-.05h-.11c-.7-.08-1.41-.14-2.12-.19a76.3,76.3,0,0,0-9.4-.11c-.59,0-1.2,0-1.8.13-8.67,1.11-16.38,4.08-20.68,12.46-6.58,12.81-1.52,27.07,12,32.87,6.49,2.79,13.46,4.47,20.12,6.9,4.06,1.49,8.53,3.26,7.95,8.81-.61,5.8-5.59,6.81-10,7.35-7.36.91-14.8.25-21.45-3.13-4.45-2.25-6.75-1.43-8.2,1.8h0l-.05.13a1,1,0,0,1-.07.15l-2.56,6c0,.06-.05.12-.08.17a5.23,5.23,0,0,0-.23.57v0h0c-.54,1.6.05,2.65,1.89,3.45,14.77,6.34,29.79,8.72,45,2C406.94,108.37,411.44,97.92,409.48,87.61Z" transform="translate(0)"/><ellipse class="cls-2" cx="469.52" cy="155.01" rx="5.43" ry="5.47"/><ellipse class="cls-2" cx="214.53" cy="155.01" rx="5.43" ry="5.47"/><path class="cls-2" d="M232.47,154.16v-.07a12.41,12.41,0,0,1,12.71-12.66,12.55,12.55,0,0,1,9.6,3.77l-3.41,4a9,9,0,0,0-6.23-2.77c-4.11,0-7.06,3.43-7.06,7.63v.07c0,4.2,2.88,7.7,7.06,7.7,2.79,0,4.49-1.12,6.4-2.87l3.42,3.46a12.83,12.83,0,0,1-22.49-8.22Z" transform="translate(0)"/><path class="cls-2" d="M278,141.67h5l10.44,24.67h-5.61l-2.22-5.5H275.28l-2.22,5.5h-5.47Zm5.64,14.42-3.24-8-3.23,8Z" transform="translate(0)"/><path class="cls-2" d="M307.62,141.85h9.95c5.81,0,9.33,3.46,9.33,8.46v.07c0,5.67-4.39,8.61-9.85,8.61H313v7.35h-5.36Zm9.6,12.35c2.68,0,4.25-1.61,4.25-3.71v-.07c0-2.42-1.67-3.71-4.35-3.71H313v7.49Z" transform="translate(0)"/><path class="cls-2" d="M341.55,141.85h5.36v24.49h-5.36Z" transform="translate(0)"/><path class="cls-2" d="M369.12,146.81h-7.41v-5h20.18v5h-7.41v19.53h-5.36Z" transform="translate(0)"/><path class="cls-2" d="M401.66,141.67h4.95l10.44,24.67h-5.61l-2.22-5.5H398.91l-2.22,5.5h-5.47Zm5.64,14.42-3.23-8-3.24,8Z" transform="translate(0)"/><path class="cls-2" d="M431.25,141.85h5.36v19.59h12.15v4.9H431.25Z" transform="translate(0)"/></g></g></svg>