<?xml version="1.0" encoding="UTF-8" standalone="no"?>
<svg
   xmlns:dc="http://purl.org/dc/elements/1.1/"
   xmlns:cc="http://creativecommons.org/ns#"
   xmlns:rdf="http://www.w3.org/1999/02/22-rdf-syntax-ns#"
   xmlns:svg="http://www.w3.org/2000/svg"
   xmlns="http://www.w3.org/2000/svg"
   xmlns:sodipodi="http://sodipodi.sourceforge.net/DTD/sodipodi-0.dtd"
   xmlns:inkscape="http://www.inkscape.org/namespaces/inkscape"
   version="1.1"
   id="svg2"
   xml:space="preserve"
   width="1066.6667"
   height="1817.3333"
   viewBox="0 0 1066.6667 1817.3333"
   sodipodi:docname="Sello Certificación 2021 - 2022.ai"><metadata
     id="metadata8"><rdf:RDF><cc:Work
         rdf:about=""><dc:format>image/svg+xml</dc:format><dc:type
           rdf:resource="http://purl.org/dc/dcmitype/StillImage" /></cc:Work></rdf:RDF></metadata><defs
     id="defs6"><clipPath
       clipPathUnits="userSpaceOnUse"
       id="clipPath26"><path
         d="M 0,1363 H 800 V 0 H 0 Z"
         id="path24" /></clipPath></defs><sodipodi:namedview
     pagecolor="#ffffff"
     bordercolor="#666666"
     borderopacity="1"
     objecttolerance="10"
     gridtolerance="10"
     guidetolerance="10"
     inkscape:pageopacity="0"
     inkscape:pageshadow="2"
     inkscape:window-width="640"
     inkscape:window-height="480"
     id="namedview4" /><g
     id="g10"
     inkscape:groupmode="layer"
     inkscape:label="Sello Certificación 2021 - 2022"
     transform="matrix(1.3333333,0,0,-1.3333333,0,1817.3333)"><g
       id="g12"
       transform="translate(0,1362.9995)"><path
         d="m 0,0 v -1147.035 l 399.919,-215.315 399.918,215.315 V 0 Z"
         style="fill:#002171;fill-opacity:1;fill-rule:nonzero;stroke:none"
         id="path14" /></g><g
       id="g16"
       transform="translate(790.6963,145.1196)"><path
         d="m 0,0 h -7.169 v 9.916 l -5.427,-9.648 h -3.216 l -5.427,9.648 V 0 h -7.169 v 24.053 h 6.097 l 8.107,-14.539 8.107,14.539 H 0 Z m -31.825,17.152 h -7.839 V 0 h -7.169 v 17.152 h -7.771 v 6.901 h 22.779 z"
         style="fill:#002171;fill-opacity:1;fill-rule:nonzero;stroke:none"
         id="path18" /></g><g
       id="g20"><g
         id="g22"
         clip-path="url(#clipPath26)"><g
           id="g28"
           transform="translate(333.3545,221.1308)"><path
             d="m 0,0 v -16.929 h 12.15 c 2.484,0 4.508,0.729 6.076,2.187 1.565,1.458 2.348,3.536 2.348,6.237 0,2.699 -0.783,4.792 -2.348,6.277 C 16.658,-0.743 14.634,0 12.15,0 Z m -12.474,11.016 h 26.245 c 5.884,0 10.611,-1.729 14.174,-5.184 3.565,-3.456 5.346,-8.235 5.346,-14.337 0,-6.102 -1.781,-10.882 -5.346,-14.337 -3.563,-3.457 -8.29,-5.184 -14.174,-5.184 H 0.081 v -21.546 h -12.555 z"
             style="fill:#ffffff;fill-opacity:1;fill-rule:nonzero;stroke:none"
             id="path30" /></g><g
           id="g32"
           transform="translate(391.2051,205.0117)"><path
             d="m 0,0 c -2.539,0 -4.577,-0.743 -6.116,-2.228 -1.539,-1.485 -2.39,-3.55 -2.551,-6.196 H 8.181 C 8.072,-5.778 7.33,-3.713 5.953,-2.228 4.576,-0.743 2.592,0 0,0 M 20.088,-16.281 H -8.667 c 0.107,-2.647 0.931,-4.726 2.47,-6.237 1.539,-1.512 3.632,-2.268 6.278,-2.268 4.212,0 6.775,1.539 7.694,4.617 l 11.908,-0.567 c -0.757,-3.996 -2.93,-7.263 -6.521,-9.801 -3.592,-2.539 -7.845,-3.807 -12.758,-3.807 -6.479,0 -11.704,1.971 -15.673,5.913 -3.969,3.942 -5.954,9.234 -5.954,15.876 0,6.696 1.971,12 5.913,15.916 3.942,3.915 9.073,5.873 15.391,5.873 6.102,0 10.961,-1.85 14.579,-5.548 3.617,-3.7 5.428,-8.789 5.428,-15.269 z"
             style="fill:#ffffff;fill-opacity:1;fill-rule:nonzero;stroke:none"
             id="path34" /></g><g
           id="g36"
           transform="translate(442.4854,213.8408)"><path
             d="m 0,0 v -11.421 c -3.402,0 -6.103,-0.879 -8.101,-2.633 -1.998,-1.755 -2.996,-4.09 -2.996,-7.006 v -21.222 h -11.826 v 41.877 h 11.421 V -5.184 C -9.288,-1.729 -5.455,0 0,0"
             style="fill:#ffffff;fill-opacity:1;fill-rule:nonzero;stroke:none"
             id="path38" /></g><g
           id="g40"
           transform="translate(471.6523,219.997)"><path
             d="m 0,0 h -9.233 l 6.884,15.471 H 10.936 Z M 14.014,-48.438 H 2.835 v 4.211 c -2.106,-3.401 -5.725,-5.102 -10.854,-5.102 -4.806,0 -8.585,1.458 -11.339,4.374 -2.754,2.916 -4.132,6.938 -4.132,12.068 v 26.325 h 11.826 v -23.813 c 0,-5.293 2.24,-7.938 6.724,-7.938 2.212,0 3.955,0.742 5.224,2.227 1.268,1.484 1.904,3.442 1.904,5.873 v 23.651 h 11.826 z"
             style="fill:#ffffff;fill-opacity:1;fill-rule:nonzero;stroke:none"
             id="path42" /></g><g
           id="g44"
           transform="translate(86.0669,466.3329)"><path
             d="m 0,0 c 10.488,0 19.475,-2.926 26.961,-8.778 7.485,-5.853 11.988,-13.757 13.509,-23.712 l -18.354,-1.596 c -1.217,5.928 -3.819,10.488 -7.809,13.68 -3.99,3.192 -8.949,4.788 -14.877,4.788 -7.524,0 -13.548,-2.565 -18.069,-7.695 -4.522,-5.13 -6.783,-11.989 -6.783,-20.577 0,-8.968 2.337,-15.923 7.011,-20.862 4.674,-4.941 10.659,-7.41 17.955,-7.41 5.928,0 10.887,1.557 14.877,4.674 3.99,3.115 6.555,7.599 7.695,13.452 l 18.468,-1.596 c -1.596,-9.881 -6.118,-17.709 -13.566,-23.484 -7.449,-5.777 -16.416,-8.664 -26.904,-8.664 -12.768,0 -23.199,3.951 -31.293,11.856 -8.094,7.903 -12.141,18.582 -12.141,32.034 0,13.527 4.028,24.225 12.084,32.091 C -23.181,-3.933 -12.768,0 0,0"
             style="fill:#ffffff;fill-opacity:1;fill-rule:nonzero;stroke:none"
             id="path46" /></g><g
           id="g48"
           transform="translate(166.6621,426.8891)"><path
             d="m 0,0 c -3.573,0 -6.441,-1.045 -8.607,-3.135 -2.166,-2.091 -3.363,-4.998 -3.591,-8.721 h 23.712 c -0.153,3.723 -1.197,6.63 -3.135,8.721 C 6.441,-1.045 3.648,0 0,0 m 28.272,-22.914 h -40.47 c 0.152,-3.725 1.311,-6.651 3.477,-8.778 2.166,-2.129 5.111,-3.192 8.835,-3.192 5.928,0 9.537,2.166 10.83,6.498 l 16.758,-0.798 c -1.065,-5.625 -4.123,-10.223 -9.177,-13.794 -5.055,-3.573 -11.04,-5.358 -17.955,-5.358 -9.12,0 -16.473,2.773 -22.059,8.322 -5.586,5.547 -8.379,12.996 -8.379,22.344 0,9.423 2.774,16.89 8.322,22.401 5.547,5.509 12.768,8.265 21.66,8.265 8.588,0 15.428,-2.604 20.52,-7.809 5.091,-5.207 7.638,-12.369 7.638,-21.489 z"
             style="fill:#ffffff;fill-opacity:1;fill-rule:nonzero;stroke:none"
             id="path50" /></g><g
           id="g52"
           transform="translate(239.8491,439.3149)"><path
             d="m 0,0 v -16.074 c -4.788,0 -8.589,-1.236 -11.4,-3.705 -2.813,-2.471 -4.218,-5.757 -4.218,-9.861 V -59.508 H -32.262 V -0.57 h 16.074 V -7.296 C -13.073,-2.433 -7.677,0 0,0"
             style="fill:#ffffff;fill-opacity:1;fill-rule:nonzero;stroke:none"
             id="path54" /></g><g
           id="g56"
           transform="translate(271.8809,424.3813)"><path
             d="m 0,0 -0.114,-21.888 c 0,-3.041 0.836,-5.283 2.508,-6.726 1.671,-1.445 3.8,-2.166 6.384,-2.166 1.292,0 3.002,0.189 5.13,0.57 v -14.82 c -3.192,-0.456 -6.27,-0.684 -9.234,-0.684 -6.688,0 -11.952,1.653 -15.789,4.959 -3.838,3.306 -5.719,8.265 -5.643,14.877 L -16.644,0 H -27.36 v 14.364 h 10.83 l 0.114,19.494 H 0.228 L 0.114,14.364 H 13.908 L 13.908,0 Z"
             style="fill:#ffffff;fill-opacity:1;fill-rule:nonzero;stroke:none"
             id="path58" /></g><path
           d="M 313.604,379.807 H 296.96 v 58.938 h 16.644 z m -8.322,88.236 c 2.811,0 5.187,-0.969 7.125,-2.907 1.938,-1.938 2.907,-4.314 2.907,-7.125 0,-2.736 -0.969,-5.073 -2.907,-7.011 -1.938,-1.938 -4.314,-2.907 -7.125,-2.907 -2.812,0 -5.169,0.969 -7.068,2.907 -1.9,1.938 -2.85,4.275 -2.85,7.011 0,2.736 0.987,5.091 2.965,7.068 1.975,1.976 4.292,2.964 6.953,2.964"
           style="fill:#ffffff;fill-opacity:1;fill-rule:nonzero;stroke:none"
           id="path60" /><path
           d="m 389.526,379.807 h -16.644 v 58.938 h 16.644 z m -8.321,88.236 c 2.81,0 5.187,-0.969 7.125,-2.907 1.938,-1.938 2.906,-4.314 2.906,-7.125 0,-2.736 -0.968,-5.073 -2.906,-7.011 -1.938,-1.938 -4.315,-2.907 -7.125,-2.907 -2.813,0 -5.17,0.969 -7.068,2.907 -1.901,1.938 -2.85,4.275 -2.85,7.011 0,2.736 0.986,5.091 2.963,7.068 1.976,1.976 4.293,2.964 6.955,2.964 m -24.055,1.026 c 2.127,0 4.065,-0.114 5.814,-0.342 v -14.364 c -1.367,0.152 -2.661,0.228 -3.876,0.228 -2.889,0 -5.263,-0.855 -7.125,-2.565 -1.863,-1.71 -2.793,-3.972 -2.793,-6.783 v -6.498 h 13.681 V 424.381 H 349.17 v -44.574 h -16.529 v 44.574 h -10.717 v 14.364 h 10.717 v 6.042 c 0,7.371 2.222,13.261 6.669,17.67 4.445,4.407 10.391,6.612 17.84,6.612"
           style="fill:#ffffff;fill-opacity:1;fill-rule:nonzero;stroke:none"
           id="path62" /><g
           id="g64"
           transform="translate(432.3906,439.8852)"><path
             d="m 0,0 c 7.296,0 13.509,-2.052 18.639,-6.156 5.13,-4.104 8.226,-9.653 9.291,-16.644 l -16.302,-1.368 c -0.381,3.039 -1.616,5.452 -3.705,7.239 -2.091,1.784 -4.731,2.679 -7.923,2.679 -3.953,0 -7.164,-1.445 -9.633,-4.332 -2.471,-2.889 -3.705,-6.917 -3.705,-12.084 0,-5.093 1.234,-9.083 3.705,-11.97 2.469,-2.889 5.68,-4.332 9.633,-4.332 3.267,0 5.928,0.855 7.98,2.565 2.052,1.71 3.306,4.047 3.762,7.011 L 27.93,-38.874 C 26.79,-45.791 23.673,-51.263 18.582,-55.29 13.489,-59.319 7.296,-61.332 0,-61.332 c -8.892,0 -16.151,2.754 -21.774,8.265 -5.625,5.509 -8.436,12.976 -8.436,22.401 0,9.499 2.811,16.986 8.436,22.458 C -16.151,-2.736 -8.892,0 0,0"
             style="fill:#ffffff;fill-opacity:1;fill-rule:nonzero;stroke:none"
             id="path66" /></g><g
           id="g68"
           transform="translate(503.1836,403.519)"><path
             d="m 0,0 -8.892,-0.57 c -5.7,-0.228 -8.55,-2.28 -8.55,-6.156 0,-3.573 2.28,-5.358 6.84,-5.358 3.115,0 5.661,0.835 7.638,2.508 C -0.989,-7.905 0,-5.548 0,-2.508 Z m -7.866,36.366 c 7.98,0 14.059,-2.014 18.24,-6.042 4.179,-4.029 6.27,-9.918 6.27,-17.67 V -23.712 H 0.57 v 4.788 c -3.876,-4.029 -8.892,-6.042 -15.048,-6.042 -6.081,0 -10.869,1.5 -14.364,4.503 -3.497,3.002 -5.244,7.314 -5.244,12.939 0,11.247 7.866,17.214 23.598,17.898 L 0,10.944 v 2.28 c 0,6.08 -2.547,9.12 -7.638,9.12 -2.661,0 -4.694,-0.761 -6.099,-2.28 -1.407,-1.521 -2.109,-3.345 -2.109,-5.472 l -16.644,0.684 c 0,5.472 2.298,10.354 6.897,14.649 4.597,4.293 10.506,6.441 17.727,6.441"
             style="fill:#ffffff;fill-opacity:1;fill-rule:nonzero;stroke:none"
             id="path70" /></g><g
           id="g72"
           transform="translate(562.2349,439.8852)"><path
             d="m 0,0 c 7.296,0 13.509,-2.052 18.639,-6.156 5.13,-4.104 8.226,-9.653 9.291,-16.644 l -16.302,-1.368 c -0.381,3.039 -1.616,5.452 -3.705,7.239 -2.091,1.784 -4.731,2.679 -7.923,2.679 -3.953,0 -7.164,-1.445 -9.633,-4.332 -2.471,-2.889 -3.705,-6.917 -3.705,-12.084 0,-5.093 1.234,-9.083 3.705,-11.97 2.469,-2.889 5.68,-4.332 9.633,-4.332 3.267,0 5.928,0.855 7.98,2.565 2.052,1.71 3.306,4.047 3.762,7.011 L 27.93,-38.874 C 26.79,-45.791 23.673,-51.263 18.582,-55.29 13.489,-59.319 7.296,-61.332 0,-61.332 c -8.892,0 -16.151,2.754 -21.774,8.265 -5.625,5.509 -8.436,12.976 -8.436,22.401 0,9.499 2.811,16.986 8.436,22.458 C -16.151,-2.736 -8.892,0 0,0"
             style="fill:#ffffff;fill-opacity:1;fill-rule:nonzero;stroke:none"
             id="path74" /></g><path
           d="m 618.778,379.807 h -16.644 v 58.938 h 16.644 z m -8.322,88.236 c 2.811,0 5.187,-0.969 7.125,-2.907 1.938,-1.938 2.907,-4.314 2.907,-7.125 0,-2.736 -0.969,-5.073 -2.907,-7.011 -1.938,-1.938 -4.314,-2.907 -7.125,-2.907 -2.812,0 -5.169,0.969 -7.068,2.907 -1.9,1.938 -2.85,4.275 -2.85,7.011 0,2.736 0.987,5.091 2.964,7.068 1.976,1.976 4.293,2.964 6.954,2.964"
           style="fill:#ffffff;fill-opacity:1;fill-rule:nonzero;stroke:none"
           id="path76" /><g
           id="g78"
           transform="translate(669.0503,447.9789)"><path
             d="m 0,0 h -12.996 l 9.69,21.774 H 15.39 Z m 4.332,-26.733 c -2.661,2.925 -6.156,4.389 -10.488,4.389 -4.332,0 -7.828,-1.464 -10.488,-4.389 -2.661,-2.927 -3.99,-6.936 -3.99,-12.027 0,-5.093 1.329,-9.082 3.99,-11.97 2.66,-2.889 6.156,-4.332 10.488,-4.332 4.332,0 7.827,1.443 10.488,4.332 2.659,2.888 3.99,6.877 3.99,11.97 0,5.091 -1.331,9.1 -3.99,12.027 m -33.003,10.203 c 5.889,5.624 13.395,8.436 22.515,8.436 9.12,0 16.624,-2.812 22.515,-8.436 5.889,-5.625 8.835,-13.035 8.835,-22.23 0,-9.12 -2.946,-16.512 -8.835,-22.173 -5.891,-5.663 -13.395,-8.493 -22.515,-8.493 -9.12,0 -16.626,2.83 -22.515,8.493 -5.891,5.661 -8.835,13.053 -8.835,22.173 0,9.195 2.944,16.605 8.835,22.23"
             style="fill:#ffffff;fill-opacity:1;fill-rule:nonzero;stroke:none"
             id="path80" /></g><g
           id="g82"
           transform="translate(738.4751,439.8852)"><path
             d="m 0,0 c 6.915,0 12.483,-2.129 16.701,-6.384 4.218,-4.257 6.327,-10.146 6.327,-17.67 V -60.078 H 6.384 v 32.832 c 0,3.723 -0.932,6.612 -2.793,8.664 -1.863,2.052 -4.389,3.078 -7.581,3.078 -3.269,0 -5.91,-1.083 -7.923,-3.249 -2.015,-2.166 -3.021,-5.036 -3.021,-8.607 V -60.078 H -31.578 V -1.14 h 15.732 V -7.182 C -12.807,-2.394 -7.524,0 0,0"
             style="fill:#ffffff;fill-opacity:1;fill-rule:nonzero;stroke:none"
             id="path84" /></g><path
           d="m 0,563 h 800 v 800 H 0 Z"
           style="fill:#e60000;fill-opacity:1;fill-rule:nonzero;stroke:none"
           id="path86" /><g
           id="g88"
           transform="translate(199.0405,1239.683)"><path
             d="m 0,0 v -10.832 c 0,-20.059 -6.417,-36.306 -19.255,-48.742 -12.838,-12.439 -29.488,-18.657 -49.746,-18.657 -21.666,0 -39.718,7.021 -53.96,21.063 -14.242,14.242 -21.265,31.492 -21.265,51.752 0,20.461 7.023,37.711 21.064,51.954 14.243,14.242 31.692,21.263 52.556,21.263 26.277,0 49.144,-12.838 61.179,-32.697 l -23.669,-13.64 c -6.621,11.433 -21.064,19.457 -37.711,19.457 -13.44,0 -24.472,-4.412 -33.099,-13.239 -8.625,-8.626 -12.838,-19.658 -12.838,-33.098 0,-13.239 4.414,-24.271 13.038,-32.897 8.828,-8.624 20.462,-12.837 34.905,-12.837 21.463,0 35.905,10.03 40.918,26.678 H -70.406 V 0 Z"
             style="fill:#ffffff;fill-opacity:1;fill-rule:nonzero;stroke:none"
             id="path90" /></g><g
           id="g92"
           transform="translate(240.4937,1247.306)"><path
             d="M 0,0 C 4.575,12.838 16.009,19.256 28.968,19.256 V -9.628 C 21.535,-8.626 14.674,-10.229 8.768,-14.443 2.861,-18.655 0,-25.475 0,-35.103 V -83.045 H -24.581 V 17.25 H 0 Z"
             style="fill:#ffffff;fill-opacity:1;fill-rule:nonzero;stroke:none"
             id="path94" /></g><g
           id="g96"
           transform="translate(361.7251,1223.8373)"><path
             d="M 0,0 C -3.006,13.64 -13.039,20.26 -24.873,20.26 -38.714,20.26 -48.141,12.838 -51.151,0 Z m -50.75,-20.06 c 3.412,-12.637 12.838,-18.855 28.285,-18.855 9.828,0 17.452,3.41 22.465,10.029 l 20.863,-12.035 c -9.828,-14.243 -24.471,-21.464 -43.73,-21.464 -16.65,0 -29.886,5.016 -39.918,15.045 -10.028,10.03 -15.045,22.668 -15.045,37.911 0,15.045 5.017,27.682 14.845,37.711 9.831,10.231 22.669,15.246 38.112,15.246 14.644,0 26.879,-5.015 36.31,-15.246 9.627,-10.229 14.439,-22.666 14.439,-37.711 0,-3.409 -0.401,-6.82 -1.003,-10.631 z"
             style="fill:#ffffff;fill-opacity:1;fill-rule:nonzero;stroke:none"
             id="path98" /></g><g
           id="g100"
           transform="translate(453.0034,1186.1263)"><path
             d="m 0,0 c 8.026,0 14.644,2.606 19.86,7.822 5.414,5.417 8.023,12.236 8.023,20.46 0,8.225 -2.609,15.045 -8.023,20.26 -5.216,5.416 -11.834,8.024 -19.86,8.024 -8.022,0 -14.644,-2.608 -19.857,-8.024 -5.217,-5.215 -7.825,-12.035 -7.825,-20.26 0,-8.224 2.608,-15.043 7.825,-20.46 C -14.644,2.606 -8.022,0 0,0 M 27.883,78.43 H 53.759 V -21.865 H 27.883 v 11.835 c -7.822,-9.829 -18.654,-14.644 -32.695,-14.644 -13.44,0 -24.873,5.016 -34.504,15.245 -9.427,10.23 -14.242,22.868 -14.242,37.711 0,14.844 4.815,27.281 14.242,37.51 9.631,10.232 21.064,15.447 34.504,15.447 14.041,0 24.873,-4.814 32.695,-14.644 z"
             style="fill:#ffffff;fill-opacity:1;fill-rule:nonzero;stroke:none"
             id="path102" /></g><g
           id="g104"
           transform="translate(591.6265,1239.683)"><path
             d="m 0,0 h -22.669 v -41.722 c 0,-10.833 7.825,-11.034 22.669,-10.231 v -23.469 c -35.507,-4.011 -48.545,6.218 -48.545,33.7 V 0 h -17.45 v 24.873 h 17.45 v 20.26 l 25.876,7.824 V 24.873 l 22.669,0 z"
             style="fill:#ffffff;fill-opacity:1;fill-rule:nonzero;stroke:none"
             id="path106" /></g><g
           id="g108"
           transform="translate(125.625,1059.9139)"><path
             d="M 0,0 C 11.834,0 20.459,9.227 20.459,21.262 20.459,33.499 11.834,42.525 0,42.525 H -24.672 V 0 Z m 0,68.401 c 13.44,0 24.873,-4.613 34.1,-13.64 C 43.329,45.735 47.94,34.501 47.94,21.262 47.94,8.024 43.329,-3.21 34.1,-12.236 24.873,-21.263 13.44,-25.876 0,-25.876 H -24.672 V -72.013 H -52.354 V 68.401 Z"
             style="fill:#ffffff;fill-opacity:1;fill-rule:nonzero;stroke:none"
             id="path110" /></g><path
           d="m 192.432,1127.017 h 25.876 V 987.901 h -25.876 z"
           style="fill:#ffffff;fill-opacity:1;fill-rule:nonzero;stroke:none"
           id="path112" /><g
           id="g114"
           transform="translate(294.335,1009.7665)"><path
             d="m 0,0 c 8.025,0 14.644,2.607 19.86,7.822 5.414,5.417 8.023,12.236 8.023,20.46 0,8.225 -2.609,15.045 -8.023,20.26 -5.216,5.416 -11.835,8.024 -19.86,8.024 -8.022,0 -14.644,-2.608 -19.857,-8.024 -5.217,-5.215 -7.825,-12.035 -7.825,-20.26 0,-8.224 2.608,-15.043 7.825,-20.46 C -14.644,2.607 -8.022,0 0,0 M 27.883,78.43 H 53.759 V -21.865 H 27.883 v 11.835 c -7.822,-9.829 -18.654,-14.644 -32.695,-14.644 -13.44,0 -24.874,5.016 -34.504,15.245 -9.427,10.23 -14.243,22.867 -14.243,37.711 0,14.844 4.816,27.281 14.243,37.511 9.63,10.231 21.064,15.446 34.504,15.446 14.041,0 24.873,-4.814 32.695,-14.644 z"
             style="fill:#ffffff;fill-opacity:1;fill-rule:nonzero;stroke:none"
             id="path116" /></g><g
           id="g118"
           transform="translate(385.4155,1000.3378)"><path
             d="m 0,0 c -10.029,10.23 -15.045,22.668 -15.045,37.711 0,15.045 5.016,27.481 15.045,37.711 10.233,10.231 22.87,15.245 37.912,15.245 19.459,0 36.708,-10.028 44.934,-25.876 L 60.581,51.753 c -4.013,8.224 -12.637,13.439 -22.87,13.439 -15.443,0 -26.879,-11.433 -26.879,-27.481 0,-7.823 2.608,-14.443 7.624,-19.658 5.013,-5.014 11.433,-7.623 19.255,-7.623 10.434,0 19.058,5.016 23.071,13.239 L 83.247,10.832 C 74.422,-5.014 57.371,-15.245 37.912,-15.245 22.87,-15.245 10.233,-10.229 0,0"
             style="fill:#ffffff;fill-opacity:1;fill-rule:nonzero;stroke:none"
             id="path120" /></g><g
           id="g122"
           transform="translate(560.7437,1047.4774)"><path
             d="M 0,0 C -3.007,13.641 -13.039,20.26 -24.873,20.26 -38.714,20.26 -48.141,12.838 -51.151,0 Z m -50.75,-20.059 c 3.411,-12.637 12.838,-18.855 28.284,-18.855 9.829,0 17.453,3.409 22.466,10.028 l 20.863,-12.035 c -9.828,-14.243 -24.471,-21.464 -43.73,-21.464 -16.647,0 -29.886,5.016 -39.918,15.045 -10.029,10.03 -15.045,22.668 -15.045,37.911 0,15.045 5.016,27.682 14.845,37.712 9.831,10.231 22.669,15.245 38.112,15.245 14.644,0 26.879,-5.014 36.309,-15.245 9.628,-10.23 14.44,-22.667 14.44,-37.712 0,-3.409 -0.401,-6.82 -1.003,-10.63 z"
             style="fill:#ffffff;fill-opacity:1;fill-rule:nonzero;stroke:none"
             id="path124" /></g><g
           id="g126"
           transform="translate(158.1196,944.9409)"><path
             d="m 0,0 v -25.156 h -37.912 v -108.243 h -27.682 v 108.243 h -37.711 V 0 Z"
             style="fill:#ffffff;fill-opacity:1;fill-rule:nonzero;stroke:none"
             id="path128" /></g><g
           id="g130"
           transform="translate(201.2412,834.0087)"><path
             d="m 0,0 c 7.825,0 14.242,2.607 19.459,7.822 5.213,5.215 7.822,11.834 7.822,19.859 0,8.024 -2.609,14.643 -7.822,19.858 C 14.242,52.754 7.825,55.363 0,55.363 c -7.822,0 -14.242,-2.609 -19.456,-7.824 -5.016,-5.215 -7.624,-11.834 -7.624,-19.858 0,-8.025 2.608,-14.644 7.624,-19.859 C -14.242,2.607 -7.822,0 0,0 m 0,-25.276 c -14.841,0 -27.481,5.016 -37.711,15.246 -10.229,10.229 -15.246,22.868 -15.246,37.711 0,14.844 5.017,27.28 15.246,37.51 10.23,10.231 22.87,15.446 37.711,15.446 14.844,0 27.481,-5.215 37.711,-15.446 C 47.943,54.961 53.157,42.525 53.157,27.681 53.157,12.838 47.943,0.199 37.711,-10.03 27.481,-20.26 14.844,-25.276 0,-25.276"
             style="fill:#ffffff;fill-opacity:1;fill-rule:nonzero;stroke:none"
             id="path132" /></g><g
           id="g134"
           transform="translate(97.9248,626.9785)"><path
             d="m 0,0 -39.316,140.414 h 29.087 L 16.647,36.306 45.934,140.414 h 23.67 l 29.487,-104.108 26.88,104.108 h 29.087 L 115.741,0 H 84.247 L 57.769,92.674 31.491,0 Z"
             style="fill:#ffffff;fill-opacity:1;fill-rule:nonzero;stroke:none"
             id="path136" /></g><g
           id="g138"
           transform="translate(303.5464,649.4453)"><path
             d="m 0,0 c 7.825,0 14.242,2.607 19.458,7.822 5.214,5.215 7.823,11.835 7.823,19.859 0,8.024 -2.609,14.643 -7.823,19.858 C 14.242,52.754 7.825,55.363 0,55.363 c -7.822,0 -14.243,-2.609 -19.456,-7.824 -5.016,-5.215 -7.625,-11.834 -7.625,-19.858 0,-8.024 2.609,-14.644 7.625,-19.859 C -14.243,2.607 -7.822,0 0,0 m 0,-25.276 c -14.841,0 -27.481,5.016 -37.711,15.246 -10.229,10.229 -15.246,22.868 -15.246,37.711 0,14.844 5.017,27.28 15.246,37.51 10.23,10.231 22.87,15.446 37.711,15.446 14.844,0 27.481,-5.215 37.711,-15.446 C 47.943,54.961 53.157,42.525 53.157,27.681 53.157,12.838 47.943,0.199 37.711,-10.03 27.481,-20.26 14.844,-25.276 0,-25.276"
             style="fill:#ffffff;fill-opacity:1;fill-rule:nonzero;stroke:none"
             id="path140" /></g><g
           id="g142"
           transform="translate(400.8437,710.0229)"><path
             d="M 0,0 C 4.815,12.838 16.851,19.257 30.491,19.257 V -9.627 C 22.666,-8.626 15.446,-10.229 9.227,-14.443 3.01,-18.655 0,-25.475 0,-35.103 V -83.044 H -25.876 V 17.25 L 0,17.25 Z"
             style="fill:#ffffff;fill-opacity:1;fill-rule:nonzero;stroke:none"
             id="path144" /></g><g
           id="g146"
           transform="translate(542.8687,626.9785)"><path
             d="M 0,0 H -30.09 L -66.597,45.534 V 0 h -25.876 v 140.414 h 25.876 V 56.165 l 34.501,44.13 H -1.204 L -41.523,50.75 Z"
             style="fill:#ffffff;fill-opacity:1;fill-rule:nonzero;stroke:none"
             id="path148" /></g><g
           id="g150"
           transform="translate(574.9927,646.2812)"><path
             d="M 0,0 C 2.554,0 3.88,1.125 3.88,3.27 V 3.372 C 3.88,5.722 2.45,6.539 0,6.539 H -2.862 V 0 Z M -7.766,10.32 H 0.1 c 5.212,0 8.58,-2.147 8.58,-6.743 V 3.473 c 0,-3.371 -1.938,-5.209 -4.596,-6.027 l 5.927,-9.5 H 4.904 l -5.416,8.683 h -2.35 v -8.683 H -7.766 Z M 18.592,-1.123 c 0,11.135 -7.765,18.9 -18.592,18.9 -10.831,0 -18.597,-7.867 -18.597,-19.002 0,-11.238 8.173,-18.798 18.597,-18.798 10.519,0 18.592,7.763 18.592,18.9 m -41.273,-0.102 c 0,12.566 10.011,22.679 22.681,22.679 12.869,0 22.677,-10.011 22.677,-22.577 0,-12.771 -10.012,-22.579 -22.677,-22.579 -12.57,0 -22.681,9.706 -22.681,22.477"
             style="fill:#ffffff;fill-opacity:1;fill-rule:nonzero;stroke:none"
             id="path152" /></g><g
           id="g154"
           transform="translate(130.167,305.5507)"><path
             d="M 0,0 H 9.264 L 4.661,16.227 Z M -2.36,26.021 H 13.276 L 26.67,-16.167 H 13.866 L 11.624,-8.32 H -2.36 l -2.243,-7.847 h -11.27 z"
             style="fill:#ffffff;fill-opacity:1;fill-rule:nonzero;stroke:none"
             id="path156" /></g><g
           id="g158"
           transform="translate(183.208,304.6069)"><path
             d="m 0,0 v 0.472 c 0,5.428 -2.36,8.025 -6.077,8.025 -3.836,0 -6.137,-2.773 -6.137,-7.966 V 0.059 c 0,-5.252 2.301,-7.907 6.137,-7.907 C -2.124,-7.848 0,-5.075 0,0 m -11.919,-10.444 v -4.78 H -22.48 v 44.432 h 10.561 V 11.034 c 1.771,2.95 4.957,5.428 9.618,5.428 7.198,0 13.04,-5.428 13.04,-15.99 V 0 c 0,-10.621 -5.842,-15.932 -13.099,-15.932 -4.602,0 -8.025,2.183 -9.559,5.488"
             style="fill:#ffffff;fill-opacity:1;fill-rule:nonzero;stroke:none"
             id="path160" /></g><g
           id="g162"
           transform="translate(198.6641,320.2431)"><path
             d="m 0,0 h 10.562 v -6.136 c 1.947,4.602 5.192,6.608 9.971,6.549 v -9.854 c -6.431,0.177 -9.971,-1.829 -9.971,-6.786 V -30.86 L 0,-30.86 Z"
             style="fill:#ffffff;fill-opacity:1;fill-rule:nonzero;stroke:none"
             id="path164" /></g><g
           id="g166"
           transform="translate(232.8828,291.0942)"><path
             d="m 0,0 14.751,15.637 c 4.189,4.484 6.963,8.084 6.963,11.624 0,2.832 -1.476,4.72 -4.485,4.72 -3.009,0 -4.897,-1.829 -5.428,-6.844 H 0.826 c 0.412,10.562 6.785,15.931 16.993,15.931 10.327,0 15.814,-5.547 15.814,-13.335 0,-5.783 -3.245,-10.149 -7.966,-14.692 l -5.9,-5.724 H 33.928 V -1.711 L 0,-1.711 Z"
             style="fill:#ffffff;fill-opacity:1;fill-rule:nonzero;stroke:none"
             id="path168" /></g><g
           id="g170"
           transform="translate(297.3721,309.6811)"><path
             d="m 0,0 v 1.711 c 0,7.73 -2.242,11.624 -7.376,11.624 -5.074,0 -7.376,-3.835 -7.376,-11.624 v -1.77 c 0,-7.848 2.302,-11.565 7.494,-11.565 C -2.065,-11.624 0,-7.789 0,0 m -26.848,-0.118 v 1.77 c 0,13.336 8.32,20.829 19.472,20.829 11.093,0 19.472,-6.903 19.472,-20.593 V 0.236 c 0,-13.394 -7.67,-21.242 -19.708,-21.242 -11.801,0 -19.236,7.612 -19.236,20.888"
             style="fill:#ffffff;fill-opacity:1;fill-rule:nonzero;stroke:none"
             id="path172" /></g><g
           id="g174"
           transform="translate(312.0596,291.0942)"><path
             d="m 0,0 14.752,15.637 c 4.189,4.484 6.962,8.084 6.962,11.624 0,2.832 -1.475,4.72 -4.485,4.72 -3.008,0 -4.897,-1.829 -5.428,-6.844 H 0.826 c 0.413,10.562 6.786,15.931 16.994,15.931 10.326,0 15.814,-5.547 15.814,-13.335 0,-5.783 -3.246,-10.149 -7.966,-14.692 L 19.767,7.317 H 33.929 V -1.711 L 0,-1.711 Z"
             style="fill:#ffffff;fill-opacity:1;fill-rule:nonzero;stroke:none"
             id="path176" /></g><g
           id="g178"
           transform="translate(357.4902,319.6533)"><path
             d="m 0,0 -8.024,-4.957 v 10.09 l 9.676,6.786 H 12.097 V -30.27 H 0 Z"
             style="fill:#ffffff;fill-opacity:1;fill-rule:nonzero;stroke:none"
             id="path180" /></g><path
           d="m 388.759,310.212 h 16.521 v -7.966 h -16.521 z"
           style="fill:#ffffff;fill-opacity:1;fill-rule:nonzero;stroke:none"
           id="path182" /><g
           id="g184"
           transform="translate(436.5488,305.5507)"><path
             d="M 0,0 H 9.264 L 4.662,16.227 Z M -2.36,26.021 H 13.276 L 26.671,-16.167 H 13.866 L 11.624,-8.32 H -2.36 l -2.243,-7.847 h -11.269 z"
             style="fill:#ffffff;fill-opacity:1;fill-rule:nonzero;stroke:none"
             id="path186" /></g><g
           id="g188"
           transform="translate(489.5908,304.6069)"><path
             d="m 0,0 v 0.472 c 0,5.428 -2.36,8.025 -6.078,8.025 -3.835,0 -6.136,-2.773 -6.136,-7.966 V 0.059 c 0,-5.252 2.301,-7.907 6.136,-7.907 C -2.124,-7.848 0,-5.075 0,0 m -11.919,-10.444 v -4.78 h -10.562 v 44.432 h 10.562 V 11.034 c 1.77,2.95 4.956,5.428 9.617,5.428 7.199,0 13.041,-5.428 13.041,-15.99 V 0 c 0,-10.621 -5.842,-15.932 -13.099,-15.932 -4.603,0 -8.025,2.183 -9.559,5.488"
             style="fill:#ffffff;fill-opacity:1;fill-rule:nonzero;stroke:none"
             id="path190" /></g><g
           id="g192"
           transform="translate(505.0459,320.2431)"><path
             d="m 0,0 h 10.563 v -6.136 c 1.947,4.602 5.192,6.608 9.971,6.549 v -9.854 c -6.431,0.177 -9.971,-1.829 -9.971,-6.786 V -30.86 L 0,-30.86 Z"
             style="fill:#ffffff;fill-opacity:1;fill-rule:nonzero;stroke:none"
             id="path194" /></g><g
           id="g196"
           transform="translate(539.2646,291.0942)"><path
             d="m 0,0 14.752,15.637 c 4.189,4.484 6.962,8.084 6.962,11.624 0,2.832 -1.475,4.72 -4.485,4.72 -3.008,0 -4.897,-1.829 -5.428,-6.844 H 0.826 c 0.413,10.562 6.786,15.931 16.994,15.931 10.326,0 15.814,-5.547 15.814,-13.335 0,-5.783 -3.246,-10.149 -7.966,-14.692 L 19.767,7.317 H 33.929 V -1.711 L 0,-1.711 Z"
             style="fill:#ffffff;fill-opacity:1;fill-rule:nonzero;stroke:none"
             id="path198" /></g><g
           id="g200"
           transform="translate(603.7549,309.6811)"><path
             d="m 0,0 v 1.711 c 0,7.73 -2.242,11.624 -7.376,11.624 -5.074,0 -7.376,-3.835 -7.376,-11.624 v -1.77 c 0,-7.848 2.302,-11.565 7.494,-11.565 C -2.065,-11.624 0,-7.789 0,0 m -26.848,-0.118 v 1.77 c 0,13.336 8.32,20.829 19.472,20.829 11.093,0 19.472,-6.903 19.472,-20.593 V 0.236 c 0,-13.394 -7.67,-21.242 -19.708,-21.242 -11.801,0 -19.236,7.612 -19.236,20.888"
             style="fill:#ffffff;fill-opacity:1;fill-rule:nonzero;stroke:none"
             id="path202" /></g><g
           id="g204"
           transform="translate(618.4424,291.0942)"><path
             d="m 0,0 14.752,15.637 c 4.189,4.484 6.962,8.084 6.962,11.624 0,2.832 -1.475,4.72 -4.485,4.72 -3.008,0 -4.897,-1.829 -5.428,-6.844 H 0.826 c 0.413,10.562 6.786,15.931 16.994,15.931 10.326,0 15.814,-5.547 15.814,-13.335 0,-5.783 -3.246,-10.149 -7.966,-14.692 L 19.767,7.317 H 33.929 V -1.711 L 0,-1.711 Z"
             style="fill:#ffffff;fill-opacity:1;fill-rule:nonzero;stroke:none"
             id="path206" /></g><g
           id="g208"
           transform="translate(655.0215,291.0942)"><path
             d="m 0,0 14.751,15.637 c 4.189,4.484 6.963,8.084 6.963,11.624 0,2.832 -1.476,4.72 -4.485,4.72 -3.009,0 -4.897,-1.829 -5.428,-6.844 H 0.826 c 0.412,10.562 6.785,15.931 16.993,15.931 10.327,0 15.814,-5.547 15.814,-13.335 0,-5.783 -3.245,-10.149 -7.966,-14.692 l -5.9,-5.724 H 33.928 V -1.711 L 0,-1.711 Z"
             style="fill:#ffffff;fill-opacity:1;fill-rule:nonzero;stroke:none"
             id="path210" /></g></g></g></g></svg>
