<svg width="3996" height="3996" viewBox="0 0 3996 3996" fill="none" xmlns="http://www.w3.org/2000/svg">
<path d="M1955.58 1445.52L1998 1487.94L2040.42 1445.52L2156.41 1329.55C2272.29 1213.68 2426.06 1150 2589.93 1150C2753.8 1150 2907.56 1213.68 3023.44 1329.55C3139.31 1445.41 3203 1599.16 3203 1763C3203 1926.85 3139.31 2080.59 3023.44 2196.45L3065.86 2238.88L3023.44 2196.45L2036.89 3182.89L2036.88 3182.9L2036.87 3182.9C2026.14 3193.64 2012.17 3199 1998 3199C1983.84 3199 1969.87 3193.64 1959.11 3182.89L972.565 2196.45L972.563 2196.45C856.689 2080.59 793 1926.85 793 1763C793 1599.16 856.689 1445.41 972.565 1329.55L972.566 1329.55C1088.43 1213.68 1242.2 1150 1406.07 1150C1569.95 1150 1723.71 1213.68 1839.59 1329.55L1955.58 1445.52Z" stroke="black" stroke-width="120"/>
<circle cx="1998" cy="1998" r="1938" stroke="black" stroke-width="120"/>
</svg>
