<svg width="512" height="512" viewBox="0 0 512 512" fill="none" xmlns="http://www.w3.org/2000/svg">
<path d="M512 203.061V203.016C512 202.589 511.976 202.166 511.941 201.745C511.931 201.63 511.916 201.516 511.904 201.401C511.868 201.071 511.822 200.744 511.765 200.42C511.744 200.298 511.723 200.176 511.699 200.055C511.619 199.66 511.528 199.268 511.417 198.883C511.406 198.845 511.397 198.806 511.386 198.768C511.269 198.374 511.133 197.987 510.985 197.605C510.929 197.459 510.867 197.316 510.806 197.171C510.697 196.913 510.58 196.658 510.456 196.407C510.384 196.261 510.315 196.114 510.239 195.97C510.052 195.619 509.853 195.275 509.639 194.939C509.559 194.814 509.471 194.694 509.387 194.571C509.22 194.326 509.047 194.086 508.866 193.852C508.769 193.727 508.672 193.603 508.571 193.48C508.308 193.161 508.036 192.849 507.746 192.552C507.723 192.529 507.701 192.505 507.678 192.482C507.368 192.167 507.038 191.87 506.699 191.582C506.657 191.546 506.621 191.506 506.578 191.471L481 170.246V105.017C481 85.7179 465.299 70.0169 446 70.0169H360.224L291.124 12.6719C270.77 -4.21614 241.228 -4.21614 220.876 12.6719L151.776 70.0159H66C46.701 70.0159 31 85.7169 31 105.016V170.245L5.421 191.473C5.379 191.508 5.342 191.548 5.3 191.584C4.961 191.872 4.631 192.169 4.321 192.484C4.298 192.507 4.276 192.531 4.253 192.554C3.964 192.851 3.691 193.163 3.428 193.482C3.327 193.604 3.23 193.729 3.133 193.854C2.952 194.089 2.779 194.329 2.612 194.573C2.528 194.696 2.44 194.816 2.36 194.941C2.146 195.276 1.947 195.62 1.76 195.972C1.683 196.116 1.614 196.263 1.543 196.409C1.419 196.66 1.303 196.915 1.193 197.173C1.132 197.317 1.07 197.461 1.014 197.607C0.866 197.989 0.729 198.375 0.613 198.77C0.602 198.808 0.593 198.846 0.582 198.885C0.471 199.27 0.38 199.662 0.3 200.057C0.276 200.179 0.255 200.3 0.234 200.422C0.177 200.746 0.131 201.073 0.095 201.403C0.083 201.518 0.068 201.632 0.058 201.747C0.024 202.166 0 202.589 0 203.016V203.061V203.069V456.996C0 472.714 6.638 486.902 17.246 496.935C17.547 497.236 17.849 497.534 18.171 497.805C27.928 506.619 40.847 511.995 55 511.995H457C471.154 511.995 484.074 506.618 493.832 497.802C494.151 497.532 494.451 497.237 494.75 496.938C505.36 486.905 512 472.715 512 456.995V203.069C512 203.067 512 203.064 512 203.061ZM66 100.016H446C448.757 100.016 451 102.259 451 105.016V221.698L442.512 228.742L271.966 370.275C262.715 377.952 249.285 377.951 240.034 370.275L69.488 228.743L61 221.698V105.016C61 102.259 63.243 100.016 66 100.016ZM30 456.996V234.956L36.452 240.311C36.456 240.314 36.46 240.318 36.464 240.321L182.933 361.872L31.536 465.624C30.543 462.934 30 460.027 30 456.996ZM206.937 381.792L220.876 393.36C241.228 410.25 270.772 410.249 291.124 393.36L305.063 381.792L451.283 481.996H60.716L206.937 381.792ZM329.067 361.873L475.535 240.321C475.539 240.318 475.543 240.314 475.547 240.311L481.999 234.956V456.996C481.999 460.027 481.456 462.934 480.463 465.624L329.067 361.873ZM240.034 35.7589C249.285 28.0819 262.715 28.0819 271.966 35.7589L313.247 70.0169H198.753L240.034 35.7589Z" fill="black"/>
<path d="M131.5 164.994C131.5 173.278 138.216 179.994 146.5 179.994H288.5C296.784 179.994 303.5 173.278 303.5 164.994C303.5 156.71 296.784 149.994 288.5 149.994H146.5C138.216 149.994 131.5 156.71 131.5 164.994Z" fill="#D8BD03"/>
<path d="M146.5 239.994H365.5C372.488 239.994 378.343 235.208 380.009 228.74C380.318 227.54 380.5 226.29 380.5 224.994C380.5 216.71 373.784 209.994 365.5 209.994H146.5C138.216 209.994 131.5 216.71 131.5 224.994C131.5 226.29 131.682 227.541 131.991 228.74C133.657 235.209 139.512 239.994 146.5 239.994Z" fill="#D8BD03"/>
</svg>
