<svg width="5376" height="4727" viewBox="0 0 5376 4727" fill="none" xmlns="http://www.w3.org/2000/svg">
<path d="M4903.5 0H472.5C211.964 0 0 186.375 0 415.459V4311.54C0 4540.63 211.964 4727 472.5 4727H4903.5C5164.04 4727 5376 4540.63 5376 4311.54V415.459C5376 186.375 5164.04 0 4903.5 0ZM5061 4311.54C5061 4387.9 4990.35 4450.03 4903.5 4450.03H472.5C385.655 4450.03 315 4387.9 315 4311.54V1384.86H5061V4311.54ZM5061 1107.89H315V415.459C315 339.098 385.655 276.973 472.5 276.973H4903.5C4990.35 276.973 5061 339.098 5061 415.459V1107.89Z" fill="black"/>
<path d="M787.5 830.918C874.485 830.918 945 768.916 945 692.432C945 615.948 874.485 553.945 787.5 553.945C700.515 553.945 630 615.948 630 692.432C630 768.916 700.515 830.918 787.5 830.918Z" fill="#D8BD03"/>
<path d="M1417.5 830.918C1504.48 830.918 1575 768.916 1575 692.432C1575 615.948 1504.48 553.945 1417.5 553.945C1330.52 553.945 1260 615.948 1260 692.432C1260 768.916 1330.52 830.918 1417.5 830.918Z" fill="#D8BD03"/>
<path d="M2047.5 830.918C2134.48 830.918 2205 768.916 2205 692.432C2205 615.948 2134.48 553.945 2047.5 553.945C1960.52 553.945 1890 615.948 1890 692.432C1890 768.916 1960.52 830.918 2047.5 830.918Z" fill="#D8BD03"/>
<path d="M2362.5 1661.84H787.5C700.518 1661.84 630 1723.84 630 1800.32V2926.68C630 3003.16 700.518 3065.16 787.5 3065.16H2362.5C2449.48 3065.16 2520 3003.16 2520 2926.68V1800.32C2520 1723.84 2449.48 1661.84 2362.5 1661.84ZM2205 2788.19H945V1938.81H2205V2788.19Z" fill="#D8BD03"/>
<path d="M4588.5 2788.19H2992.5C2905.52 2788.19 2835 2850.2 2835 2926.68C2835 3003.16 2905.52 3065.16 2992.5 3065.16H4588.5C4675.48 3065.16 4746 3003.16 4746 2926.68C4746 2850.2 4675.48 2788.19 4588.5 2788.19Z" fill="black"/>
<path d="M4588.5 2225.01H2992.5C2905.52 2225.01 2835 2287.02 2835 2363.5C2835 2439.98 2905.52 2501.99 2992.5 2501.99H4588.5C4675.48 2501.99 4746 2439.98 4746 2363.5C4746 2287.02 4675.48 2225.01 4588.5 2225.01Z" fill="black"/>
<path d="M4588.5 3342.14H787.5C700.518 3342.14 630 3404.14 630 3480.62C630 3557.1 700.518 3619.11 787.5 3619.11H4588.5C4675.48 3619.11 4746 3557.1 4746 3480.62C4746 3404.14 4675.48 3342.14 4588.5 3342.14Z" fill="black"/>
<path d="M4588.5 3896.08H787.5C700.518 3896.08 630 3958.09 630 4034.57C630 4111.05 700.518 4173.05 787.5 4173.05H4588.5C4675.48 4173.05 4746 4111.05 4746 4034.57C4746 3958.09 4675.48 3896.08 4588.5 3896.08Z" fill="black"/>
</svg>
