<svg width="478" height="478" viewBox="0 0 478 478" fill="none" xmlns="http://www.w3.org/2000/svg">
<g clip-path="url(#clip0)">
<path d="M426.667 51.2H375.467V17.067C375.467 7.641 367.826 0 358.4 0C348.974 0 341.333 7.641 341.333 17.067V51.2H136.533V17.067C136.533 7.641 128.892 0 119.467 0C110.042 0 102.4 7.641 102.4 17.067V51.2H51.2C22.923 51.2 0 74.123 0 102.4V426.667C0 454.944 22.923 477.867 51.2 477.867H426.667C454.944 477.867 477.867 454.944 477.867 426.667V102.4C477.867 74.123 454.944 51.2 426.667 51.2ZM443.733 426.667C443.733 436.093 436.092 443.734 426.666 443.734H51.2C41.774 443.734 34.133 436.093 34.133 426.667V204.8H443.733V426.667ZM443.733 170.667H34.133V102.4C34.133 92.974 41.774 85.333 51.2 85.333H102.4V119.466C102.4 128.892 110.041 136.533 119.467 136.533C128.893 136.533 136.534 128.892 136.534 119.466V85.333H341.334V119.466C341.334 128.892 348.975 136.533 358.401 136.533C367.827 136.533 375.468 128.892 375.468 119.466V85.333H426.668C436.094 85.333 443.735 92.974 443.735 102.4V170.667H443.733Z" fill="white"/>
<path d="M136.533 238.934H102.4C92.974 238.934 85.333 246.575 85.333 256.001C85.333 265.427 92.974 273.068 102.4 273.068H136.533C145.959 273.068 153.6 265.427 153.6 256.001C153.6 246.575 145.959 238.934 136.533 238.934Z" fill="#D8BD03"/>
<path d="M256 238.934H221.867C212.441 238.934 204.8 246.575 204.8 256.001C204.8 265.427 212.441 273.068 221.867 273.068H256C265.426 273.068 273.067 265.427 273.067 256.001C273.067 246.575 265.426 238.934 256 238.934Z" fill="#D8BD03"/>
<path d="M375.467 238.934H341.334C331.908 238.934 324.267 246.575 324.267 256.001C324.267 265.427 331.908 273.068 341.334 273.068H375.467C384.893 273.068 392.534 265.427 392.534 256.001C392.533 246.575 384.892 238.934 375.467 238.934Z" fill="#D8BD03"/>
<path d="M136.533 307.199H102.4C92.974 307.199 85.333 314.84 85.333 324.266C85.333 333.692 92.974 341.333 102.4 341.333H136.533C145.959 341.333 153.6 333.692 153.6 324.266C153.6 314.84 145.959 307.199 136.533 307.199Z" fill="#D8BD03"/>
<path d="M256 307.199H221.867C212.441 307.199 204.8 314.84 204.8 324.266C204.8 333.692 212.441 341.333 221.867 341.333H256C265.426 341.333 273.067 333.692 273.067 324.266C273.067 314.84 265.426 307.199 256 307.199Z" fill="#D8BD03"/>
<path d="M375.467 307.199H341.334C331.908 307.199 324.267 314.84 324.267 324.266C324.267 333.692 331.908 341.333 341.334 341.333H375.467C384.893 341.333 392.534 333.692 392.534 324.266C392.533 314.84 384.892 307.199 375.467 307.199Z" fill="#D8BD03"/>
<path d="M136.533 375.467H102.4C92.974 375.467 85.333 383.108 85.333 392.534C85.333 401.96 92.974 409.6 102.4 409.6H136.533C145.959 409.6 153.6 401.959 153.6 392.533C153.6 383.107 145.959 375.467 136.533 375.467Z" fill="#D8BD03"/>
<path d="M256 375.467H221.867C212.441 375.467 204.8 383.108 204.8 392.534C204.8 401.96 212.441 409.601 221.867 409.601H256C265.426 409.601 273.067 401.96 273.067 392.534C273.067 383.108 265.426 375.467 256 375.467Z" fill="#D8BD03"/>
<path d="M375.467 375.467H341.334C331.908 375.467 324.267 383.108 324.267 392.534C324.267 401.96 331.908 409.601 341.334 409.601H375.467C384.893 409.601 392.534 401.96 392.534 392.534C392.534 383.108 384.892 375.467 375.467 375.467Z" fill="#D8BD03"/>
</g>
<defs>
<clipPath id="clip0">
<rect width="477.867" height="477.867" fill="white"/>
</clipPath>
</defs>
</svg>
