<svg width="512" height="512" viewBox="0 0 512 512" fill="none" xmlns="http://www.w3.org/2000/svg">
<path d="M499.924 113.264C326.208 78.7366 337.453 80.5396 333.519 81.2016C332.261 81.4116 316.843 84.5106 280.906 91.6976C265.84 48.2536 224.507 16.9766 176 16.9766C127.448 16.9766 86.082 48.3126 71.051 91.8206L17.924 81.2636C8.664 79.4276 0 86.5066 0 95.9766V447.977C0 455.134 5.057 461.294 12.076 462.689C184.324 496.925 173.047 494.715 174.189 494.854C177.811 495.299 166.617 497.151 336.009 463.272L494.076 494.689C503.341 496.528 512 489.437 512 479.977V127.977C512 120.82 506.943 114.66 499.924 113.264V113.264ZM176 46.9766C220.663 46.9766 257 83.3126 257 127.977C257 165.66 196.702 261.315 176 292.966C155.321 261.35 95 165.668 95 127.977C95 83.3126 131.337 46.9766 176 46.9766V46.9766ZM30 114.25L65.21 121.247C65.076 123.474 65 125.716 65 127.976C65 152.99 81.363 193.357 115.025 251.385C134.681 285.268 154.058 314.359 161 324.606V461.701L30 435.664V114.25ZM191 324.606C197.941 314.359 217.319 285.269 236.975 251.385C270.637 193.357 287 152.99 287 127.977C287 125.673 286.921 123.387 286.782 121.118L321 114.273V435.68L191 461.68V324.606ZM482 461.702L351 435.665V114.251L482 140.288V461.702Z" fill="black"/>
<path d="M176 174.977C201.916 174.977 223 153.893 223 127.977C223 102.061 201.916 80.9766 176 80.9766C150.084 80.9766 129 102.061 129 127.977C129 153.893 150.084 174.977 176 174.977ZM176 110.977C185.374 110.977 193 118.603 193 127.977C193 137.351 185.374 144.977 176 144.977C166.626 144.977 159 137.351 159 127.977C159 118.603 166.626 110.977 176 110.977Z" fill="#D8BD03"/>
</svg>
