<svg width="2442" height="2226" viewBox="0 0 2442 2226" fill="none" xmlns="http://www.w3.org/2000/svg">
<path d="M763.535 1900.12L414.223 1317.23C377.83 1255.3 358.642 1184.77 358.642 1112.93C358.642 1041.1 377.83 970.568 414.223 908.636L641.401 522.624C676.578 462.795 726.745 413.171 786.951 378.647C847.157 344.122 915.323 325.891 984.724 325.751H1671.75C1695.45 282.833 1818.83 79.2218 1861.37 0.123047H809.195C739.2 0.182204 670.451 18.6446 609.842 53.6589C549.233 88.6731 498.895 139.008 463.876 199.617L53.8085 910.757C18.5562 971.921 0 1041.28 0 1111.87C0 1182.47 18.5562 1251.82 53.8085 1312.99L577.776 2222.75L763.785 1900.12H763.535Z" fill="#DABE04"/>
<path d="M1977.14 2025.75L2387.21 1313.99C2422.46 1252.82 2441.02 1183.47 2441.02 1112.87C2441.02 1042.28 2422.46 972.92 2387.21 911.757L1861.87 0C1819.33 79.0988 1695.95 282.71 1672.25 325.628L2026.67 908.513C2063.06 970.445 2082.25 1040.98 2082.25 1112.81C2082.25 1184.64 2063.06 1255.18 2026.67 1317.11L1799.49 1703.12C1764.32 1762.95 1714.15 1812.57 1653.94 1847.1C1593.74 1881.62 1525.57 1899.85 1456.17 1899.99H763.785L578.026 2223.75L579.149 2225.87H1631.82C1701.88 2225.75 1770.67 2207.19 1831.29 2172.06C1891.9 2136.94 1942.2 2086.48 1977.14 2025.75V2025.75Z" fill="#9C9055"/>
</svg>
