<svg xmlns="http://www.w3.org/2000/svg" viewBox="0 0 544.11 188.68"><defs><style>.cls-1{fill:#dabe04;}.cls-2{fill:#9c9055;}.cls-3{fill:#686969;}</style></defs><g id="Capa_2" data-name="Capa 2"><g id="Capa_1-2" data-name="Capa 1"><path class="cls-1" d="M61.2,152.3l-28-46.72a32.32,32.32,0,0,1,0-32.75L51.41,41.89A32,32,0,0,1,78.93,26.11H134c1.9-3.44,11.79-19.76,15.2-26.1H64.86A32,32,0,0,0,37.18,16l-32.87,57a32.28,32.28,0,0,0,0,32.24l42,72.92L61.22,152.3Z"/><path class="cls-2" d="M158.48,162.37l32.87-57.05a32.28,32.28,0,0,0,0-32.24L149.24,0c-3.41,6.34-13.3,22.66-15.2,26.1h0l28.41,46.72a32.32,32.32,0,0,1,0,32.75l-18.21,30.94a32,32,0,0,1-27.52,15.78H61.22L46.33,178.24l.09.17H130.8A32,32,0,0,0,158.48,162.37Z"/><path class="cls-3" d="M543.6,39.74a2.07,2.07,0,0,0-1.53-.7H471.45a2,2,0,0,0-2,2.05V55a2,2,0,0,0,2,2h24.11a3.9,3.9,0,0,1,2,2.79V123.3c0,.38,0,.73,0,1.08v2.76a2.93,2.93,0,0,0,2.91,2.94h.64a9.68,9.68,0,0,0,2.53,0h6a9.4,9.4,0,0,0,2.71,0h.7a2.93,2.93,0,0,0,2.91-2.94v-2.68c0-.52,0-1.06,0-1.64s0-1.19,0-1.78V59.49a3.16,3.16,0,0,1,1.65-2.44h24.62a2,2,0,0,0,1.35-.69,2.07,2.07,0,0,0,.51-1.35V41.09A2.07,2.07,0,0,0,543.6,39.74Z"/><path class="cls-3" d="M379.58,112.92H341.52c-6.93-.35-6.8-2.29-6.8-13,0-3,.48-4.71,2.23-5.44h35.1a2.22,2.22,0,0,0,2.21-2.23V90c0-.12,0-.24,0-.36V79.58a2.22,2.22,0,0,0-2.21-2.23H340.88c-6.47-.68-6.34-3.5-6.16-15.21,0-3.11.66-4.7,2.75-5.25h41a2.22,2.22,0,0,0,2.21-2.23V52.74a9.12,9.12,0,0,0,0-1.48V41.37a2.22,2.22,0,0,0-2.21-2.23H318.83a2.22,2.22,0,0,0-2.21,2.23v1.51a16.07,16.07,0,0,0-.05,1.61c0,1.13,0,2.26.05,3.38v6.79a2,2,0,0,0,.08.54c.05,9.73,0,19.46,0,29.18,0,13.55.12,27.1-.08,40.64,0,3.72.82,5.1,4.79,5.06L328,130a1.91,1.91,0,0,0,.48.06h51.09a2.22,2.22,0,0,0,2.21-2.23v-12.7A2.22,2.22,0,0,0,379.58,112.92Z"/><path class="cls-3" d="M301.5,123.59v-7.07a3.45,3.45,0,0,0-3.44-3.47h-41.5l-.92-.89Q267.87,96,280.09,79.92c6.05-8,12-16,18.24-23.8.34-.42.66-.85,1-1.27a10.18,10.18,0,0,0,2.21-5.91,20,20,0,0,0,0-2.57V41a2,2,0,0,0-2-2H234.46A3.45,3.45,0,0,0,231,42.43V52.7a3.46,3.46,0,0,0,3.44,3.47h42.41c-5.14,6.79-9.6,12.71-14.07,18.61-9.71,12.82-19.32,25.71-29.21,38.39l-1.1,1.41A12.43,12.43,0,0,0,231,117c-1.7,3.67-1.22,7.58-.32,11,.52,1.94,2,2.38,3.67,2.34h63.69a3.45,3.45,0,0,0,3.44-3.47v-.46A10.38,10.38,0,0,0,301.5,123.59Z"/><path class="cls-3" d="M463.32,99.13c-2.12-11.15-10.13-16.27-19.5-20-7.22-2.84-14.69-5-21.93-7.85-4.13-1.61-7-4.58-6.31-9.6.67-4.67,4.28-6.29,8.16-7.35a30,30,0,0,1,5.78-.74l.38,0c3.84-.14,10.71.1,16.66,3a10.65,10.65,0,0,0,1.57.62c6.23,2.1,8.1-2.36,10.36-8.13,1.63-4.17,1.49-6-3.05-7.41a102.63,102.63,0,0,0-16.73-4l-.42-.06h-.12c-.79-.09-1.59-.16-2.4-.22a86.57,86.57,0,0,0-10.63-.12,20.2,20.2,0,0,0-2,.15c-9.82,1.25-18.53,4.61-23.41,14.1C392.26,66,398,82.13,413.25,88.69c7.35,3.16,15.23,5,22.76,7.81,4.61,1.68,9.66,3.68,9,10-.69,6.56-6.32,7.7-11.34,8.32-8.32,1-16.74.28-24.27-3.54-5-2.55-7.64-1.62-9.27,2h0l-.06.14-.07.18-2.9,6.81c0,.06-.07.12-.1.19s-.18.43-.25.63l0,0h0c-.62,1.81.05,3,2.13,3.9,16.71,7.18,33.71,9.87,50.89,2.23C460.45,122.62,465.54,110.79,463.32,99.13Z"/></g></g></svg>