<svg width="920" height="249" viewBox="0 0 920 249" fill="none" xmlns="http://www.w3.org/2000/svg">
<path d="M347.615 225.789C347.615 231.637 342.89 236.378 337.062 236.378C331.232 236.378 326.507 231.637 326.507 225.789C326.507 219.938 331.232 215.198 337.062 215.198C342.89 215.198 347.615 219.938 347.615 225.789Z" fill="#D8BD03"/>
<path d="M919.74 225.835C919.74 231.717 914.988 236.485 909.124 236.485C903.263 236.485 898.51 231.717 898.51 225.835C898.51 219.952 903.263 215.183 909.124 215.183C914.988 215.183 919.74 219.952 919.74 225.835Z" fill="#D8BD03"/>
<path d="M375.748 200.226H412.032V209.756H386.232V219.9H408.969V229.43H386.232V247.878H375.748V200.226Z" fill="#D8BD03"/>
<path d="M429.191 227.457V200.227H439.675V227.184C439.675 234.945 443.555 238.961 449.954 238.961C456.353 238.961 460.233 235.081 460.233 227.525V200.227H470.718V227.116C470.718 241.548 462.615 248.628 449.818 248.628C437.019 248.628 429.191 241.483 429.191 227.457Z" fill="#D8BD03"/>
<path d="M490.938 200.226H500.605L522.934 229.566V200.226H533.282V247.878H524.362L501.288 217.588V247.878H490.938V200.226Z" fill="#D8BD03"/>
<path d="M572.837 238.417C581.416 238.417 587.201 232.63 587.201 224.189V224.056C587.201 215.612 581.416 209.689 572.837 209.689H564.737V238.417H572.837ZM554.253 200.226H572.837C587.813 200.226 598.161 210.506 598.161 223.917V224.056C598.161 237.464 587.813 247.881 572.837 247.881H554.253V200.226Z" fill="#D8BD03"/>
<path d="M640.986 227.934L634.655 212.48L628.323 227.934H640.986ZM629.958 199.887H639.624L660.046 247.879H649.086L644.73 237.191H624.579L620.223 247.879H609.535L629.958 199.887Z" fill="#D8BD03"/>
<path d="M671.759 224.189V224.053C671.759 210.506 681.969 199.41 696.607 199.41C705.592 199.41 710.969 202.405 715.395 206.763L708.724 214.454C705.047 211.118 701.303 209.077 696.537 209.077C688.505 209.077 682.719 215.747 682.719 223.917V224.053C682.719 232.221 688.369 239.029 696.537 239.029C701.984 239.029 705.32 236.85 709.064 233.446L715.735 240.186C710.833 245.43 705.388 248.695 696.197 248.695C682.175 248.695 671.759 237.873 671.759 224.189Z" fill="#D8BD03"/>
<path d="M734.12 200.227H744.603V247.877H734.12V200.227Z" fill="#D8BD03"/>
<path d="M793.278 185.115L802.196 188.995L792.938 195.804H785.041L793.278 185.115ZM803.626 224.191V224.053C803.626 215.884 797.636 209.079 789.194 209.079C780.752 209.079 774.898 215.749 774.898 223.919V224.053C774.898 232.221 780.889 239.031 789.33 239.031C797.772 239.031 803.626 232.36 803.626 224.191V224.191ZM763.938 224.191V224.053C763.938 210.507 774.626 199.412 789.33 199.412C804.034 199.412 814.585 210.369 814.585 223.919V224.053C814.585 237.6 803.898 248.697 789.194 248.697C774.49 248.697 763.938 237.736 763.938 224.191" fill="#D8BD03"/>
<path d="M833.447 200.226H843.114L865.442 229.566V200.226H875.79V247.878H866.871L843.794 217.588V247.878H833.447V200.226Z" fill="#D8BD03"/>
<path d="M882.107 8.55686C881.861 8.27686 881.575 8.0422 881.249 7.8582C880.767 7.58353 880.216 7.41287 879.623 7.41287H764.471C762.639 7.41287 761.153 8.90353 761.153 10.7422V33.3035C761.153 35.1422 762.639 36.6342 764.471 36.6342H803.787C805.448 37.4742 806.471 38.9382 807.016 41.1489V143.67C807.013 143.801 807.012 143.932 807.009 144.061C806.997 144.677 807 145.261 807.016 145.821V150.297C807.016 152.929 809.141 155.062 811.764 155.062H812.796C813.964 155.249 815.336 155.241 816.931 155.062H826.777C828.497 155.272 829.963 155.276 831.189 155.062H832.328C834.952 155.062 837.079 152.929 837.079 150.297V145.948C837.119 145.113 837.135 144.234 837.119 143.285C837.101 142.326 837.093 141.365 837.079 140.406V40.5795C837.456 38.7222 838.24 37.3955 839.764 36.6342H879.623C879.719 36.6342 879.809 36.6129 879.905 36.6049C880.783 36.5289 881.557 36.1169 882.107 35.4902C882.619 34.9035 882.94 34.1449 882.94 33.3035V10.7422C882.94 9.90219 882.619 9.14219 882.107 8.55686Z" fill="white"/>
<path d="M614.68 127.229H552.618C541.321 126.663 541.534 123.528 541.533 106.18C541.533 101.308 542.326 98.5453 545.172 97.3547H602.406C604.396 97.3547 606.009 95.736 606.009 93.74V90.06C606.016 89.876 606.009 89.6787 606.009 89.4867V73.1667C606.009 71.1693 604.396 69.5507 602.406 69.5507H551.588C541.032 68.448 541.242 63.8733 541.541 44.884C541.621 39.84 542.62 37.2627 546.029 36.36H612.834C614.825 36.36 616.437 34.7413 616.437 32.744V29.6293C616.502 28.9093 616.502 28.1133 616.437 27.24V11.1947C616.437 9.19733 614.825 7.57866 612.834 7.57866H515.637C513.648 7.57866 512.034 9.19733 512.034 11.1947V13.6427C511.96 14.424 511.929 15.2867 511.948 16.26C511.984 18.0893 512.008 19.9173 512.034 21.7453V32.744C512.034 33.0493 512.084 33.34 512.153 33.624C512.242 49.4 512.102 65.18 512.102 80.9573C512.104 102.924 512.298 124.893 511.977 146.853C511.889 152.889 513.306 155.133 519.79 155.061C523.39 155.02 526.99 154.999 530.593 154.968C530.848 155.027 531.112 155.063 531.385 155.063H614.68C616.669 155.063 618.282 153.444 618.282 151.447V130.845C618.282 128.848 616.669 127.229 614.68 127.229Z" fill="white"/>
<path d="M487.375 144.547V133.075C487.375 129.967 484.863 127.445 481.764 127.445H414.104C413.604 126.963 413.104 126.48 412.604 125.996C425.89 108.569 439.155 91.1268 452.467 73.7201C462.335 60.8188 472.09 47.8268 482.206 35.1241C482.752 34.4361 483.288 33.7414 483.838 33.0561C486.307 29.9761 487.214 26.7508 487.446 23.4694C487.543 22.0881 487.522 20.6974 487.446 19.3028V10.5468C487.446 8.7441 485.988 7.28276 484.191 7.28276H385.394H385.392H378.068C374.968 7.28276 372.458 9.80276 372.458 12.9121V29.5654C372.458 32.6734 374.968 35.1948 378.068 35.1948H447.212C438.842 46.2148 431.568 55.8148 424.275 65.3828C408.435 86.1641 392.768 107.081 376.643 127.636C376.043 128.401 375.448 129.168 374.847 129.932C373.852 131.193 373.07 132.491 372.458 133.804C369.679 139.759 370.475 146.103 371.936 151.561C372.78 154.713 375.136 155.429 377.915 155.351C377.966 155.352 378.015 155.357 378.068 155.357H481.764C484.863 155.357 487.375 152.837 487.375 149.728V148.991C487.563 147.775 487.568 146.312 487.375 144.547Z" fill="white"/>
<path d="M751.221 104.872C747.765 86.7909 734.705 78.4896 719.431 72.5069C707.651 67.8936 695.465 64.3283 683.664 59.7616C676.933 57.1576 672.197 52.3429 673.372 44.2069C674.465 36.6309 680.359 34.0056 686.681 32.2802C689.705 31.4549 692.943 31.3003 696.099 31.0816C696.309 31.0669 696.523 31.0562 696.733 31.0416C702.984 30.8162 714.191 31.2136 723.891 35.8309C724.899 36.3096 725.743 36.6389 726.451 36.8443C736.603 40.2363 739.665 33.0043 743.345 23.6483C746 16.8976 745.771 13.8363 738.372 11.6416C729.533 9.02025 720.737 6.37225 711.099 5.17491C710.872 5.14291 710.655 5.10958 710.411 5.08291C710.344 5.07491 710.279 5.06958 710.212 5.06291C708.923 4.91491 707.613 4.80025 706.291 4.70958C698.953 4.16691 692.616 4.32825 688.96 4.52025C687.876 4.54292 686.751 4.60824 685.635 4.75091C669.635 6.78024 655.419 12.2376 647.476 27.6243C635.349 51.1189 644.688 77.2963 669.58 87.9363C681.567 93.0603 694.413 96.1283 706.696 100.603C714.201 103.338 722.443 106.571 721.364 116.756C720.24 127.4 711.064 129.252 702.877 130.256C689.313 131.92 675.581 130.7 663.305 124.512C655.099 120.375 650.853 121.883 648.193 127.811V127.808L648.093 128.038C648.053 128.132 648.012 128.227 647.971 128.322L643.245 139.359C643.195 139.462 643.14 139.564 643.092 139.666C642.921 140.026 642.787 140.368 642.671 140.702L642.645 140.759L642.652 140.75C641.645 143.687 642.739 145.616 646.14 147.068C673.379 158.706 701.091 163.08 729.115 150.68C746.536 142.971 754.837 123.786 751.221 104.872Z" fill="white"/>
<path d="M151.974 1.28307L6.18721 66.6364C2.70988 68.0324 0.532541 71.5151 0.800541 75.2537C0.835208 78.9577 3.32987 82.1871 6.90587 83.1537L56.8179 100.39V165.024C56.8179 167.85 58.1485 170.511 60.4085 172.206C62.7939 173.959 65.9125 174.366 68.6685 173.283C96.6645 162.856 126.071 157.65 155.477 157.662V0.465729C154.279 0.479062 153.082 0.748404 151.974 1.28307Z" fill="#D8BD03"/>
<path d="M304.766 66.636L158.979 1.2827C157.873 0.748038 156.677 0.478705 155.477 0.466705V157.661C184.882 157.651 214.29 162.859 242.286 173.283C245.042 174.367 248.161 173.961 250.545 172.207C252.805 170.511 254.135 167.851 254.135 165.025V100.389L287.945 88.7147V150.513C286.973 151.716 286.367 153.227 286.367 154.893C286.367 158.767 289.509 161.908 293.381 161.908C297.254 161.908 300.394 158.767 300.394 154.893C300.394 153.227 299.789 151.716 298.817 150.513V84.96L304.049 83.1534C307.625 82.188 310.119 78.9587 310.153 75.2534C310.422 71.516 308.245 68.032 304.766 66.636Z" fill="#9A8F55"/>
</svg>
