<svg width="889" height="305" viewBox="0 0 889 305" fill="none" xmlns="http://www.w3.org/2000/svg">
<path d="M536.749 304.711C533.444 304.711 530.381 304.108 527.556 302.906C524.721 301.704 522.285 300.058 520.225 297.975C518.165 295.887 516.565 293.426 515.406 290.587C514.245 287.748 513.669 284.716 513.669 281.495V281.364C513.669 278.138 514.245 275.122 515.406 272.303C516.565 269.486 518.165 267.016 520.225 264.884C522.285 262.755 524.744 261.08 527.618 259.854C530.486 258.627 533.665 258.016 537.136 258.016C539.226 258.016 541.152 258.184 542.888 258.531C544.622 258.878 546.192 259.35 547.612 259.95C549.026 260.551 550.333 261.287 551.536 262.14C552.726 263.002 553.846 263.952 554.872 264.979L548.576 272.272C546.82 270.679 545.032 269.434 543.212 268.526C541.382 267.626 539.341 267.174 537.073 267.174C535.18 267.174 533.434 267.54 531.833 268.268C530.222 269.004 528.842 270.012 527.682 271.302C526.522 272.592 525.621 274.087 524.985 275.788C524.334 277.482 524.022 279.302 524.022 281.235V281.364C524.022 283.3 524.334 285.127 524.985 286.848C525.621 288.57 526.51 290.072 527.652 291.359C528.792 292.65 530.162 293.674 531.761 294.423C533.372 295.18 535.138 295.556 537.073 295.556C539.636 295.556 541.81 295.078 543.588 294.134C545.366 293.19 547.133 291.902 548.898 290.262L555.196 296.652C554.034 297.898 552.841 299.015 551.598 300.007C550.354 300.991 548.996 301.843 547.508 302.55C546.036 303.263 544.414 303.798 542.658 304.166C540.898 304.527 538.936 304.711 536.749 304.711Z" fill="#D8BD03"/>
<path d="M608.223 285.042L602.243 270.4L596.271 285.042H608.223ZM597.807 258.468H606.937L626.22 303.94H615.877L611.756 293.814H592.736L588.616 303.94H578.525L597.807 258.468Z" fill="#D8BD03"/>
<path d="M652.447 258.789H686.703V267.756H662.35V277.492H683.817V286.459H662.35V303.94H652.447V258.789Z" fill="#D8BD03"/>
<path d="M732.736 243.826L741.152 247.503L732.925 255.243H725.469L732.736 243.826ZM713.902 258.79H747.772V267.624H723.669V276.784H744.874V285.619H723.669V295.104H748.097V303.94H713.902V258.79Z" fill="#D8BD03"/>
<path d="M805.211 279.462C805.211 285.01 800.729 289.509 795.198 289.509C789.67 289.509 785.185 285.01 785.185 279.462C785.185 273.914 789.67 269.415 795.198 269.415C800.729 269.415 805.211 273.914 805.211 279.462Z" fill="#D8BD03"/>
<path d="M478.148 279.462C478.148 285.01 473.665 289.509 468.136 289.509C462.606 289.509 458.121 285.01 458.121 279.462C458.121 273.914 462.606 269.415 468.136 269.415C473.665 269.415 478.148 273.914 478.148 279.462Z" fill="#D8BD03"/>
<path d="M160.092 249.797C159.613 256.193 158.316 262.353 154.528 267.689C150.132 273.882 146.036 275.158 139.163 271.84C123.897 264.472 113.308 252.653 107.083 236.853C100.983 221.366 97.6225 205.098 93.3052 189.09C87.3705 167.082 79.9439 145.644 64.2559 128.121C81.7545 127.548 121.871 149.769 143.641 184.924C151.572 198.454 158.475 212.377 159.948 228.354C160.001 229.05 160.056 229.748 160.108 230.444C159.781 231.356 159.771 232.19 160.673 232.804C160.687 237.322 160.7 241.838 160.715 246.357C159.476 247.316 159.671 248.536 160.092 249.797Z" fill="#D8BD03"/>
<path d="M175.428 182.338C182.14 174.132 188.481 165.616 196.286 158.349C214.264 141.612 234.794 129.857 259.201 125.674C273.33 123.254 278.548 125.58 273.906 141.248C269.937 154.656 261.882 165.188 252.086 174.478C238.866 187.018 225.113 198.988 211.761 211.39C202.169 220.301 194.521 230.844 187.561 241.898C187.228 241.801 186.888 241.756 186.541 241.758C186.073 236.902 187.266 231.918 185.446 227.162C184.761 216.105 181.889 205.602 177.9 195.304C176.318 191.225 172.853 187.294 175.428 182.338Z" fill="#9A8F55"/>
<path d="M0.696863 178.356C0.11553 164.633 3.37953 152.529 10.4462 141.606C17.2409 131.102 26.8889 129.912 36.4609 137.724C54.3035 152.284 63.3475 172.16 69.9689 193.453C75.8795 212.456 80.3729 231.932 89.2302 249.921C96.4542 264.592 106.437 276.874 119.922 286.22C121.293 287.17 124.169 287.668 123.306 289.928C122.574 291.845 119.964 290.949 118.196 290.985C92.6462 291.505 70.6449 281.829 50.7675 266.666C32.1142 252.438 17.7715 234.492 8.44086 212.921C3.6422 201.828 -0.157803 190.201 0.696863 178.356Z" fill="#D8BD03"/>
<path d="M318.418 177.551C318.358 200.079 309.849 219.692 297.134 237.64C286.139 253.162 272.45 265.962 256.163 275.839C243.778 283.35 230.503 288.582 216.186 290.884C206.295 292.474 202.309 288.979 203.278 279.062C204.721 264.307 211.202 251.695 220.591 240.426C233.661 224.736 249.586 211.967 263.843 197.494C276.787 184.354 288.085 170.098 293.797 152.18C295.434 147.043 296.547 141.726 297.687 136.446C298.417 133.071 299.462 132.967 301.891 135.23C311.762 144.423 316.791 155.947 318.37 169.138C318.701 171.906 318.418 174.746 318.418 177.551Z" fill="#9A8F55"/>
<path d="M169.012 241.76C169.358 241.755 169.698 241.799 170.03 241.899C169.572 242.732 169.242 242.612 169.012 241.76Z" fill="#D7BC04"/>
<path d="M96.0785 117.634C96.0679 107.018 95.5759 96.3981 97.0052 85.8114C100.299 61.4261 108.717 39.2621 124.923 20.4767C134.304 9.60341 139.805 8.07541 146.139 23.1341C151.559 36.0234 152.003 49.2901 150.317 62.7101C148.043 80.8207 144.996 98.8314 142.532 116.919C140.763 129.915 141.528 142.934 143.148 155.907C142.829 156.045 142.539 156.223 142.273 156.449C138.837 152.995 136.605 148.386 132.188 145.873C124.661 137.769 115.793 131.486 106.195 126.075C102.391 123.931 97.2265 123.103 96.0785 117.634Z" fill="#D8BD03"/>
<path d="M223.043 117.299C225.111 105.965 225.907 94.4612 225.091 82.7866C223.551 60.8199 217.711 40.2479 203.498 22.8065C201.722 20.6399 200.142 18.2665 198.135 16.3412C188.57 7.15722 177.388 1.46123 163.946 0.650563C160.635 0.450563 159.895 1.19588 161.468 4.26921C163.928 9.07455 166.434 13.8892 168.42 18.9012C175.348 36.3812 175.646 54.5932 173.963 72.9932C172.112 93.2572 167.894 113.271 167.73 133.719C167.663 142.088 168.65 150.179 170.988 157.88C176.191 150.419 194.055 127.575 223.043 117.299Z" fill="#9A8F55"/>
<path d="M175.428 182.338C182.14 174.132 188.481 165.616 196.286 158.349C214.264 141.612 234.794 129.857 259.201 125.674C273.33 123.254 278.548 125.58 273.906 141.248C269.937 154.656 261.882 165.188 252.086 174.478C238.866 187.018 225.113 198.988 211.761 211.39C202.169 220.301 194.521 230.844 187.561 241.898C187.228 241.801 186.888 241.756 186.541 241.758C186.073 236.902 187.266 231.918 185.446 227.162C184.761 216.105 181.889 205.602 177.9 195.304C176.318 191.225 172.853 187.294 175.428 182.338Z" fill="#9A8F55"/>
<path d="M223.043 117.299C225.111 105.965 225.907 94.4612 225.091 82.7866C223.551 60.8199 217.711 40.2479 203.498 22.8065C201.722 20.6399 200.142 18.2665 198.135 16.3412C188.57 7.15722 177.388 1.46123 163.946 0.650563C160.635 0.450563 159.895 1.19588 161.468 4.26921C163.928 9.07455 166.434 13.8892 168.42 18.9012C175.348 36.3812 175.646 54.5932 173.963 72.9932C172.112 93.2572 167.894 113.271 167.73 133.719C167.663 142.088 168.65 150.179 170.988 157.88C176.191 150.419 194.055 127.575 223.043 117.299Z" fill="#9A8F55"/>
<path d="M887.599 65.1091C887.352 64.8305 887.067 64.5958 886.74 64.4105C886.259 64.1358 885.708 63.9651 885.115 63.9651H769.962C768.13 63.9651 766.646 65.4558 766.646 67.2958V89.8571C766.646 91.6945 768.13 93.1865 769.962 93.1865H809.279C810.94 94.0265 811.961 95.4918 812.508 97.7011V200.224C812.505 200.356 812.506 200.484 812.503 200.614C812.49 201.23 812.493 201.813 812.508 202.373V206.85C812.508 209.481 814.632 211.614 817.256 211.614H818.288C819.456 211.802 820.829 211.796 822.423 211.614H832.271C833.99 211.822 835.455 211.828 836.681 211.614H837.82C840.444 211.614 842.571 209.481 842.571 206.85V202.5C842.611 201.664 842.627 200.786 842.611 199.837C842.593 198.878 842.585 197.917 842.571 196.96V97.1318C842.948 95.2745 843.732 93.9478 845.256 93.1865H885.115C885.211 93.1865 885.3 93.1651 885.397 93.1571C886.275 93.0811 887.051 92.6691 887.599 92.0425C888.112 91.4558 888.432 90.6971 888.432 89.8571V67.2958C888.432 66.4545 888.112 65.6958 887.599 65.1091Z" fill="#686969"/>
<path d="M620.172 183.782H558.111C546.813 183.216 547.027 180.082 547.025 162.732C547.025 157.862 547.817 155.097 550.664 153.909H607.899C609.888 153.909 611.501 152.289 611.501 150.292V146.613C611.508 146.429 611.501 146.23 611.501 146.04V129.72C611.501 127.722 609.888 126.104 607.899 126.104H557.08C546.524 125.001 546.735 120.426 547.033 101.436C547.113 96.3917 548.112 93.8157 551.521 92.9131H618.327C620.316 92.9131 621.929 91.2944 621.929 89.2971V86.1824C621.995 85.4624 621.995 84.6651 621.929 83.7931V67.7464C621.929 65.7504 620.316 64.1317 618.327 64.1317H521.129C519.14 64.1317 517.527 65.7504 517.527 67.7464V70.1944C517.452 70.9771 517.421 71.8397 517.44 72.8131C517.476 74.6411 517.5 76.4691 517.527 78.2971V89.2971C517.527 89.6024 517.576 89.8931 517.644 90.1771C517.735 105.952 517.593 121.733 517.595 137.51C517.595 159.477 517.791 181.445 517.469 203.406C517.381 209.442 518.799 211.688 525.283 211.613C528.883 211.573 532.481 211.552 536.085 211.521C536.341 211.58 536.604 211.616 536.877 211.616H620.172C622.161 211.616 623.775 209.997 623.775 208V187.397C623.775 185.401 622.161 183.782 620.172 183.782Z" fill="#686969"/>
<path d="M492.867 201.101V189.629C492.867 186.519 490.355 184.001 487.257 184.001H419.597C419.097 183.517 418.597 183.034 418.097 182.55C431.382 165.123 444.647 147.681 457.958 130.274C467.827 117.373 477.583 104.381 487.698 91.6778C488.245 90.9898 488.782 90.2952 489.33 89.6112C491.799 86.5298 492.706 83.3045 492.938 80.0232C493.035 78.6432 493.013 77.2512 492.938 75.8578V67.1018C492.938 65.2978 491.481 63.8365 489.682 63.8365H390.886H383.561C380.461 63.8365 377.95 66.3565 377.95 69.4658V86.1192C377.95 89.2285 380.461 91.7485 383.561 91.7485H452.705C444.334 102.769 437.061 112.37 429.767 121.938C413.927 142.718 398.261 163.634 382.135 184.189C381.535 184.955 380.941 185.722 380.339 186.486C379.345 187.747 378.562 189.045 377.95 190.358C375.171 196.313 375.967 202.657 377.429 208.115C378.273 211.267 380.629 211.983 383.407 211.905C383.458 211.906 383.507 211.91 383.561 211.91H487.257C490.355 211.91 492.867 209.391 492.867 206.282V205.545C493.055 204.329 493.061 202.866 492.867 201.101Z" fill="#686969"/>
<path d="M756.715 161.426C753.258 143.344 740.197 135.043 724.922 129.06C713.142 124.447 700.958 120.882 689.157 116.316C682.426 113.712 677.689 108.898 678.863 100.762C679.958 93.1845 685.851 90.5591 692.174 88.8338C695.198 88.0085 698.435 87.8551 701.593 87.6351C701.801 87.6205 702.015 87.6098 702.226 87.5951C708.475 87.3698 719.683 87.7671 729.383 92.3845C730.391 92.8645 731.235 93.1925 731.943 93.3978C742.095 96.7898 745.158 89.5578 748.838 80.2018C751.494 73.4511 751.263 70.3898 743.863 68.1951C735.026 65.5738 726.23 62.9258 716.591 61.7285C716.363 61.6978 716.147 61.6631 715.903 61.6365C715.837 61.6298 715.771 61.6231 715.705 61.6165C714.414 61.4685 713.106 61.3551 711.783 61.2645C704.446 60.7218 698.109 60.8818 694.454 61.0738C693.369 61.0965 692.243 61.1631 691.127 61.3045C675.127 63.3338 660.911 68.7911 652.967 84.1778C640.842 107.672 650.182 133.85 675.073 144.49C687.059 149.614 699.906 152.682 712.189 157.156C719.693 159.891 727.935 163.123 726.855 173.311C725.733 183.954 716.557 185.806 708.37 186.81C694.805 188.474 681.074 187.254 668.798 181.064C660.591 176.928 656.346 178.438 653.687 184.366L653.686 184.362L653.585 184.591C653.546 184.684 653.505 184.78 653.465 184.876L648.738 195.912C648.687 196.014 648.631 196.116 648.583 196.219C648.414 196.579 648.279 196.922 648.163 197.255L648.137 197.312L648.143 197.303C647.137 200.239 648.231 202.168 651.631 203.622C678.873 215.259 706.582 219.632 734.607 207.232C752.027 199.524 760.33 180.34 756.715 161.426Z" fill="#686969"/>
</svg>
