<svg xmlns="http://www.w3.org/2000/svg" viewBox="0 0 442.27 401.12"><defs><style>.cls-1{fill:#d5b904;}.cls-2{fill:#ddc736;}.cls-3{fill:#e2ce50;}</style></defs><g id="Capa_2" data-name="Capa 2"><g id="Capa_1-2" data-name="Capa 1"><path class="cls-1" d="M432.53,164.32,337.34,0V0H146.61A72.31,72.31,0,0,0,84.05,36.05L9.74,164.32a72.27,72.27,0,0,0,0,72.48l95,163.94.22.38H295.67a72.28,72.28,0,0,0,62.55-36.06L432.53,236.8A72.27,72.27,0,0,0,432.53,164.32Z"/><path class="cls-2" d="M394.26,174.85,326.75,58.33v0H191.47A51.28,51.28,0,0,0,147.1,83.89l-52.7,91a51.28,51.28,0,0,0,0,51.41l67.37,116.28.15.26H297.19a51.28,51.28,0,0,0,44.37-25.57l52.7-91A51.28,51.28,0,0,0,394.26,174.85Z"/><path class="cls-3" d="M348.89,185.51l-39.51-68.2H230.2a30,30,0,0,0-26,15l-30.85,53.24a30,30,0,0,0,0,30.09l39.43,68.06.09.15h79.17a30,30,0,0,0,26-15l30.84-53.24A30,30,0,0,0,348.89,185.51Z"/></g></g></svg>