<svg xmlns="http://www.w3.org/2000/svg" viewBox="0 0 23.74 23.12"><defs><style>.cls-1{fill:#9d9d9d;}.cls-2{fill:#fff;}</style></defs><g id="Capa_2" data-name="Capa 2"><g id="Capa_1-2" data-name="Capa 1"><path class="cls-1" d="M14.21,2.22a9.18,9.18,0,0,1,6.94,6.94H14.21V2.22M12.21,0V11.16H23.37A11.16,11.16,0,0,0,12.21,0Z"/><path class="cls-2" d="M9.66,2.42V12.58l.44.44,6.75,6.75a9.51,9.51,0,0,1-5.69,1.85,9.66,9.66,0,0,1-1.5-19.2M11.16.8a11.16,11.16,0,1,0,7.9,19.06L11.16,12V.8Z"/><path class="cls-2" d="M22.12,13.77A9.45,9.45,0,0,1,20.39,18L16.2,13.77h5.92m1.62-1.5H12.58l7.89,7.89a11.13,11.13,0,0,0,3.27-7.89Z"/></g></g></svg>