<svg width="87" height="87" viewBox="0 0 87 87" fill="none" xmlns="http://www.w3.org/2000/svg">
<g clip-path="url(#clip0_1138:116)">
<path d="M24.1667 72.5002C20.3 72.5002 16.4333 69.1168 14.5 67.6668C4.83333 60.9002 1.93333 58.4835 0 57.0335V77.3335C0 80.0024 2.16443 82.1668 4.83333 82.1668H43.5C46.1689 82.1668 48.3333 80.0024 48.3333 77.3335V57.0335C46.4 58.4835 43.5 60.9002 33.8333 67.6668C31.9 69.1168 28.0333 72.5002 24.1667 72.5002ZM43.5 43.5002H4.83333C2.16443 43.5002 0 45.6646 0 48.3335V50.7502C3.86667 53.6502 3.38333 53.6502 17.4 63.8002C18.85 64.7668 21.75 67.6668 24.1667 67.6668C26.5833 67.6668 29.4833 64.7668 30.9333 64.2835C44.95 54.1335 44.4667 54.1335 48.3333 51.2335V48.3335C48.3333 45.6646 46.1689 43.5002 43.5 43.5002ZM82.1667 29.0002H33.8333C31.1644 29.0002 29 31.1646 29 33.8335V38.6668H43.5C48.5161 38.6668 52.6516 42.5063 53.1229 47.4001L53.1667 47.3668V67.6668H82.1667C84.8356 67.6668 87 65.5024 87 62.8335V33.8335C87 31.1646 84.8356 29.0002 82.1667 29.0002ZM77.3333 48.3335H67.6667V38.6668H77.3333V48.3335ZM24.1667 33.8335C24.1667 28.5032 28.5031 24.1668 33.8333 24.1668H67.6667V9.66683C67.6667 6.99792 65.5022 4.8335 62.8333 4.8335H14.5C11.8311 4.8335 9.66667 6.99792 9.66667 9.66683V38.6668H24.1667V33.8335Z" fill="white"/>
</g>
<defs>
<clipPath id="clip0_1138:116">
<rect width="87" height="87" fill="white"/>
</clipPath>
</defs>
</svg>
