<svg width="512" height="512" viewBox="0 0 512 512" fill="none" xmlns="http://www.w3.org/2000/svg">
<g clip-path="url(#clip0)">
<path d="M396.586 512C398.783 512 498.175 511.979 495.999 511.979C504.831 511.979 511.999 504.811 511.999 495.979C504.533 328.363 551.295 151.488 376.789 151.488C343.231 151.488 316.501 162.944 297.237 178.091C297.237 146.923 263.551 164.16 185.791 159.531C176.959 159.531 169.791 166.699 169.791 175.531C176.234 477.739 155.413 511.979 185.791 511.979H285.205C314.069 511.979 295.701 471.275 301.205 337.302C301.205 281.963 317.205 271.126 344.853 271.126C375.445 271.126 380.586 292.374 380.586 339.99C386.069 471.552 367.829 512 396.586 512ZM344.853 239.126C249.045 239.126 269.205 344.47 269.205 479.979H201.791V191.531H265.237V219.222C265.237 234.582 288.639 242.134 296.789 226.688C307.285 206.763 334.549 183.488 376.789 183.488C452.031 183.488 479.999 220.459 479.999 319.936V480H412.586C412.586 327.595 428.714 239.126 344.853 239.126V239.126Z" fill="white"/>
<path d="M23.9365 159.552C-6.35685 159.552 14.3792 193.365 7.93649 496C7.93649 504.832 15.1045 512 23.9365 512H123.456C153.75 512 133.014 478.186 139.456 175.552C139.456 147.925 99.3285 164.224 23.9365 159.552V159.552ZM107.456 480H39.9365V191.552H107.456V480Z" fill="white"/>
<path d="M73.6426 0C-23.9788 0 -23.3814 147.819 73.6426 147.819C170.603 147.819 171.371 0 73.6426 0ZM73.6426 115.819C18.8586 115.819 18.3466 32 73.6426 32C129.045 32 128.341 115.819 73.6426 115.819Z" fill="white"/>
</g>
<defs>
<clipPath id="clip0">
<rect width="512" height="512" fill="white"/>
</clipPath>
</defs>
</svg>
