<svg xmlns="http://www.w3.org/2000/svg" viewBox="0 0 447.18 1464.74"><defs><style>.cls-1{fill:#d5b904;}.cls-2{fill:none;stroke:#d5b904;stroke-miterlimit:10;}</style></defs><g id="Capa_2" data-name="Capa 2"><g id="Capa_1-2" data-name="Capa 1"><path class="cls-1" d="M140.51,422.56l-34.45-58.7H43.85l36,58.17a65.51,65.51,0,0,1,0,67.49L45,547.69h61.06L140.51,489A65.51,65.51,0,0,0,140.51,422.56Z"/><path class="cls-1" d="M140.51,790.12l-34.45-58.69H43.85l36,58.17a65.51,65.51,0,0,1,0,67.49L45,915.26h61.06l34.45-58.7A65.53,65.53,0,0,0,140.51,790.12Z"/><path class="cls-1" d="M9,606.34,43.5,547.65h62.21l-36,58.17a65.54,65.54,0,0,0,0,67.48l34.87,58.17H43.49L9,672.78A65.57,65.57,0,0,1,9,606.34Z"/><path class="cls-2" d="M143.27,59.19,108.82.5H46.61l36,58.17a65.51,65.51,0,0,1,0,67.49L47.76,184.33h61.06l34.45-58.7A65.53,65.53,0,0,0,143.27,59.19Z"/><path class="cls-2" d="M294.74,59.19,260.29.5H198.08l36,58.17a65.51,65.51,0,0,1,0,67.49l-34.87,58.17h61.06l34.45-58.7A65.53,65.53,0,0,0,294.74,59.19Z"/><path class="cls-2" d="M437.63,59.19,403.18.5H341l36,58.17a65.51,65.51,0,0,1,0,67.49l-34.86,58.17h61.05l34.45-58.7A65.53,65.53,0,0,0,437.63,59.19Z"/><path class="cls-1" d="M13.08,243l34.45-58.7h62.22l-36,58.17a65.55,65.55,0,0,0,0,67.49l34.87,58.17H47.53l-34.45-58.7A65.56,65.56,0,0,1,13.08,243Z"/><path class="cls-1" d="M9,974,43.5,915.26h62.21l-36,58.17a65.54,65.54,0,0,0,0,67.48l34.87,58.17H43.49L9,1040.39A65.57,65.57,0,0,1,9,974Z"/><path class="cls-1" d="M140.51,1157.78l-34.45-58.7H43.85l36,58.17a65.51,65.51,0,0,1,0,67.49L45,1282.91h61.06l34.45-58.7A65.51,65.51,0,0,0,140.51,1157.78Z"/><path class="cls-1" d="M10.26,1339.61l34.45-58.7h62.21l-36,58.17a65.51,65.51,0,0,0,0,67.49l34.87,58.17H44.71L10.26,1406A65.51,65.51,0,0,1,10.26,1339.61Z"/></g></g></svg>