<svg xmlns="http://www.w3.org/2000/svg" xmlns:xlink="http://www.w3.org/1999/xlink" viewBox="0 0 871.83 1140.29"><defs><style>.cls-1{fill:none;}.cls-2{clip-path:url(#clip-path);}.cls-4{stroke:rgba(205,205,205,1);fill:rgba(0,0,0,0);stroke-width:2px}.cls-5{stroke:rgba(0,0,0,0);fill:rgba(0,0,0,0);stroke-width:1px}.cls-6{stroke:rgba(205,205,205,0);fill:rgba(0,0,0,0);stroke-width:2px}</style><clipPath id="clip-path" transform="translate(-421.83 230.24)"><rect class="cls-1" width="1315.32" height="910.06"/></clipPath></defs><g id="Capa_2" data-name="Capa 2"><g id="Capa_1-2" data-name="Capa 1"><g class="cls-2"><g class="cls-3"><path class="cls-4" d="M1033.06,906,1263,511.07a225.09,225.09,0,0,0,0-226.93L963.05-230.24C938.74-185.6,868.3-70.72,854.82-46.52h.07l202.32,328.87a225.1,225.1,0,0,1,0,230.52L823.53,907.31" transform="translate(-421.83 230.24)"/><path class="cls-5" d="M831.75,907.35l229.91-394.88a225.09,225.09,0,0,0,0-226.93L761.74-228.84C737.43-184.2,667-69.31,653.52-45.12h.07L855.9,283.75a225.1,225.1,0,0,1,0,230.52L622.22,908.71" transform="translate(-421.83 230.24)"/><path class="cls-6" d="M631.36,908.69,861.27,513.82a225.12,225.12,0,0,0,0-226.93L561.35-227.49C537-182.85,466.6-68,453.12-43.77h.07L655.51,285.09a225.1,225.1,0,0,1,0,230.52L421.83,910.06" transform="translate(-421.83 230.24)"/></g></g></g></g></svg>