<svg width="87" height="87" viewBox="0 0 87 87" fill="none" xmlns="http://www.w3.org/2000/svg">
<path d="M43.5001 87C49.5018 87 54.37 82.1317 54.37 76.125H32.6302C32.6302 82.1317 37.4985 87 43.5001 87ZM80.0996 61.561C76.8167 58.0334 70.674 52.7268 70.674 35.3438C70.674 22.1408 61.4167 11.5717 48.9342 8.97867V5.4375C48.9342 2.43498 46.5009 0 43.5001 0C40.4993 0 38.066 2.43498 38.066 5.4375V8.97867C25.5836 11.5717 16.3262 22.1408 16.3262 35.3438C16.3262 52.7268 10.1835 58.0334 6.90064 61.561C5.88111 62.657 5.42912 63.9671 5.43762 65.25C5.45631 68.0367 7.6432 70.6875 10.8921 70.6875H76.1081C79.357 70.6875 81.5456 68.0367 81.5626 65.25C81.5711 63.9671 81.1191 62.6553 80.0996 61.561V61.561Z" fill="white"/>
<path fill-rule="evenodd" clip-rule="evenodd" d="M54.37 76.125C54.37 82.1317 49.5018 87 43.5001 87C37.4985 87 32.6302 82.1317 32.6302 76.125H54.37Z" fill="#DABE04"/>
</svg>
