<svg xmlns="http://www.w3.org/2000/svg" viewBox="0 0 25.36 23.12"><defs><style>.cls-1{fill:#d5b903;}.cls-2{fill:#fff;}</style></defs><g id="Capa_2" data-name="Capa 2"><g id="Capa_1-2" data-name="Capa 1"><path class="cls-1" d="M7.93,19.74,4.3,13.68a4.18,4.18,0,0,1,0-4.24l2.36-4a4.16,4.16,0,0,1,3.58-2h7.14c.24-.44,1.52-2.56,2-3.38H8.42a4.14,4.14,0,0,0-3.6,2.08L.56,9.47a4.16,4.16,0,0,0,0,4.18L6,23.1l1.93-3.36Z"/><path class="cls-2" d="M20.54,21.05l4.26-7.4a4.16,4.16,0,0,0,0-4.18L19.34,0c-.44.82-1.72,2.94-2,3.38h0l3.68,6.06a4.18,4.18,0,0,1,0,4.24l-2.36,4a4.16,4.16,0,0,1-3.57,2H7.94L6,23.1v0H17A4.15,4.15,0,0,0,20.54,21.05Z"/></g></g></svg>