<svg width="514" height="513" xmlns="http://www.w3.org/2000/svg" xmlns:xlink="http://www.w3.org/1999/xlink" xml:space="preserve" overflow="hidden"><defs><clipPath id="clip0"><rect x="845" y="1547" width="514" height="513"/></clipPath></defs><g clip-path="url(#clip0)" transform="translate(-845 -1547)"><path d="M1160.55 1905 1075 1905 1160.34 2053C1239.33 2034.51 1304.89 1979.59 1337 1905Z" stroke="#000000" stroke-width="2.29167" stroke-miterlimit="8" fill="#FFFFFF" fill-rule="evenodd"/><path d="M1016.95 1857.61 1017.1 1857.52 1001.23 1830 916 1977.77C964.101 2029.63 1031.61 2059.07 1102.28 2059 1112.21 2058.98 1122.14 2058.38 1132 2057.22Z" stroke="#000000" stroke-width="2.29167" stroke-miterlimit="8" fill="#DABE04" fill-rule="evenodd"/><path d="M1028 1730 857.922 1730C834.543 1807.32 849.153 1891.12 897.32 1956Z" stroke="#000000" stroke-width="2.29167" stroke-miterlimit="8" fill="#FFFFFF" fill-rule="evenodd"/><path d="M1044.45 1703 1130 1703 1044.66 1556C965.659 1574.37 900.107 1628.91 867.998 1703Z" stroke="#000000" stroke-width="2.29167" stroke-miterlimit="8" fill="#DABE04" fill-rule="evenodd"/><path d="M1188.02 1750.22 1187.86 1750.31 1203.83 1778 1289 1630.26C1240.91 1578.38 1173.4 1548.93 1102.71 1549 1092.78 1549.02 1082.86 1549.62 1073 1550.78Z" stroke="#000000" stroke-width="2.29167" stroke-miterlimit="8" fill="#FFFFFF" fill-rule="evenodd"/><path d="M1177 1878 1347.06 1878C1370.45 1800.69 1355.87 1716.9 1307.73 1652Z" stroke="#000000" stroke-width="2.29167" stroke-miterlimit="8" fill="#DABE04" fill-rule="evenodd"/></g></svg>