<svg width="1754" height="1757" xmlns="http://www.w3.org/2000/svg" xmlns:xlink="http://www.w3.org/1999/xlink" xml:space="preserve" overflow="hidden"><defs><clipPath id="clip0"><rect x="1640" y="603" width="1754" height="1757"/></clipPath></defs><g clip-path="url(#clip0)" transform="translate(-1640 -603)"><path d="M2717.69 1827.71 2423.49 1827.71 2716.96 2335.71C2988.61 2272.24 3214.06 2083.73 3324.49 1827.71Z" fill="#FFFFFF" fill-rule="evenodd"/><path d="M2222.11 1667.59 2222.66 1667.28 2167.83 1572.71 1873.49 2080.54C2039.6 2258.77 2272.75 2359.95 2516.83 2359.71 2551.14 2359.64 2585.42 2357.57 2619.49 2353.59Z" fill="#FFFFFF" fill-rule="evenodd"/><path d="M2258.49 1229.71 1677.78 1229.71C1597.96 1495.19 1647.85 1782.93 1812.3 2005.71Z" fill="#FFFFFF" fill-rule="evenodd"/><path d="M2315.29 1136.71 2609.49 1136.71 2316.01 627.706C2044.33 691.31 1818.91 880.177 1708.49 1136.71Z" fill="#FFFFFF" fill-rule="evenodd"/><path d="M2810.72 1298.75 2810.17 1299.06 2865.31 1394.71 3159.49 884.395C2993.41 705.208 2760.22 603.479 2516.1 603.706 2481.8 603.782 2447.52 605.838 2413.49 609.873Z" fill="#FFFFFF" fill-rule="evenodd"/><path d="M2774.49 1734.71 3356.08 1734.71C3436.07 1469.97 3386.2 1182.99 3221.58 960.706Z" fill="#FFFFFF" fill-rule="evenodd"/></g></svg>