<svg width="499" height="495" xmlns="http://www.w3.org/2000/svg" xmlns:xlink="http://www.w3.org/1999/xlink" xml:space="preserve" overflow="hidden"><defs><clipPath id="clip0"><rect x="258" y="110" width="499" height="495"/></clipPath></defs><g clip-path="url(#clip0)" transform="translate(-258 -110)"><path d="M202.878 170.156 268.522 170.156 203.038 56.7187C142.418 70.8938 92.1162 112.986 67.4746 170.156Z" stroke="#000000" stroke-width="11" fill="#FFFFFF" transform="matrix(-1.00808 1.23359e-16 -1.2256e-16 -1 757 605)"/><path d="M313.18 206.25 313.062 206.317 325.272 227.458 390.844 113.953C353.836 74.1196 301.903 51.51 247.531 51.5624 239.888 51.5779 232.253 52.0364 224.663 52.9339Z" stroke="#000000" stroke-width="11" fill="#FFFFFF" transform="matrix(-1.00808 1.23359e-16 -1.2256e-16 -1 757 605)"/><path d="M304.775 304.219 435.101 304.219C453.015 244.885 441.818 180.574 404.91 130.783Z" stroke="#000000" stroke-width="11" fill="#FFFFFF" transform="matrix(-1.00808 1.23359e-16 -1.2256e-16 -1 757 605)"/><path d="M292.184 324.844 226.54 324.844 292.024 438.281C352.643 424.107 402.944 382.014 427.582 324.844Z" stroke="#000000" stroke-width="11" fill="#FFFFFF" transform="matrix(-1.00808 1.23359e-16 -1.2256e-16 -1 757 605)"/><path d="M181.876 288.75 182 288.683 169.708 267.398 104.156 380.969C141.164 420.848 193.126 443.487 247.531 443.437 255.174 443.422 262.809 442.964 270.399 442.068Z" stroke="#000000" stroke-width="11" fill="#FFFFFF" transform="matrix(-1.00808 1.23359e-16 -1.2256e-16 -1 757 605)"/><path d="M190.126 190.781 59.9622 190.781C42.0627 250.064 53.223 314.318 90.0643 364.092Z" stroke="#000000" stroke-width="11" fill="#FFFFFF" transform="matrix(-1.00808 1.23359e-16 -1.2256e-16 -1 757 605)"/></g></svg>