<svg width="87" height="87" viewBox="0 0 87 87" fill="none" xmlns="http://www.w3.org/2000/svg">
<path d="M78.8438 81.5625H8.15625C3.65162 81.5625 0 77.9109 0 73.4062V13.5938C0 9.08912 3.65162 5.4375 8.15625 5.4375H78.8438C83.3484 5.4375 87 9.08912 87 13.5938V73.4062C87 77.9109 83.3484 81.5625 78.8438 81.5625ZM21.75 20.3906C17.9963 20.3906 14.9531 23.4338 14.9531 27.1875C14.9531 30.9412 17.9963 33.9844 21.75 33.9844C25.5037 33.9844 28.5469 30.9412 28.5469 27.1875C28.5469 23.4338 25.5037 20.3906 21.75 20.3906ZM21.75 36.7031C17.9963 36.7031 14.9531 39.7463 14.9531 43.5C14.9531 47.2537 17.9963 50.2969 21.75 50.2969C25.5037 50.2969 28.5469 47.2537 28.5469 43.5C28.5469 39.7463 25.5037 36.7031 21.75 36.7031ZM21.75 53.0156C17.9963 53.0156 14.9531 56.0588 14.9531 59.8125C14.9531 63.5662 17.9963 66.6094 21.75 66.6094C25.5037 66.6094 28.5469 63.5662 28.5469 59.8125C28.5469 56.0588 25.5037 53.0156 21.75 53.0156ZM70.6875 29.9062V24.4688C70.6875 23.3427 69.7745 22.4297 68.6484 22.4297H34.6641C33.538 22.4297 32.625 23.3427 32.625 24.4688V29.9062C32.625 31.0323 33.538 31.9453 34.6641 31.9453H68.6484C69.7745 31.9453 70.6875 31.0323 70.6875 29.9062ZM70.6875 46.2188V40.7812C70.6875 39.6552 69.7745 38.7422 68.6484 38.7422H34.6641C33.538 38.7422 32.625 39.6552 32.625 40.7812V46.2188C32.625 47.3448 33.538 48.2578 34.6641 48.2578H68.6484C69.7745 48.2578 70.6875 47.3448 70.6875 46.2188ZM70.6875 62.5312V57.0938C70.6875 55.9677 69.7745 55.0547 68.6484 55.0547H34.6641C33.538 55.0547 32.625 55.9677 32.625 57.0938V62.5312C32.625 63.6573 33.538 64.5703 34.6641 64.5703H68.6484C69.7745 64.5703 70.6875 63.6573 70.6875 62.5312Z" fill="white"/>
</svg>
