<svg width="990" height="906" viewBox="0 0 990 906" fill="none" xmlns="http://www.w3.org/2000/svg">
<path d="M650.107 906H231.952L132.284 740.143L26.2875 563.757C-21.3217 470.952 6.45033 377.996 26.2875 343.118L132.284 165.118L171.74 98.8586C206.747 34.2943 286.212 0 355.526 0H756.178L856.472 164.298L956.766 328.596C1012.95 417.656 987.397 522.289 956.766 571.805L856.472 740.143L810.613 817.115C783.133 858.758 719.246 906 650.107 906Z" fill="#D8BD03"/>
<path d="M332.055 321L495 483.556L657.945 321L708 371.045L495 584L282 371.045L332.055 321Z" fill="black"/>
</svg>
