<svg width="7740" height="2800" viewBox="0 0 7740 2800" fill="none" xmlns="http://www.w3.org/2000/svg">
<path d="M4636.18 306.305C4744.25 106.911 4989.57 1 5203.56 1H0.5V510.935H4514.37L4636.18 306.305Z" fill="white"/>
<path d="M0.5 2799H4822.06L4514.37 2286.78H0.5V2799Z" fill="white"/>
<path d="M6608.5 2524.5C6523.67 2653.1 6326.43 2799 6112.99 2799H7739.5V2286.78H6750.08L6608.5 2524.5Z" fill="white"/>
<path d="M7739.5 1H6440.45L6750.08 508.401H7739.5V1Z" fill="white"/>
<path d="M4822.06 2799H6112.99M4822.06 2799L4514.37 2286.78M4822.06 2799H0.5M6112.99 2799C6326.43 2799 6523.67 2653.1 6608.5 2524.5L6750.08 2286.78M6112.99 2799H7739.5M6440.45 1H5203.56M6440.45 1L6750.08 508.401M6440.45 1H7739.5M5203.56 1C4989.57 1 4744.25 106.911 4636.18 306.305L4514.37 510.935M5203.56 1H0.5M0.5 1H7739.5M0.5 1V510.935M0.5 2799H7739.5M0.5 2799V2286.78M7739.5 1V508.401M7739.5 2799V2286.78M6750.08 508.401L7059.71 1015.8C7233.16 1290.85 7154.27 1613.98 7059.71 1766.91L6750.08 2286.78M6750.08 508.401H7739.5M7739.5 508.401V2286.78M6750.08 2286.78H7739.5M4514.37 2286.78L4187.14 1742.05C4040.16 1455.44 4125.89 1168.36 4187.14 1060.65L4514.37 510.935M4514.37 2286.78H0.5M0.5 2286.78V510.935M4514.37 510.935H0.5" stroke="white"/>
<path d="M4187.14 1742.05C4040.16 1455.44 4125.9 1168.36 4187.14 1060.65L4514.37 510.935H0.5V2286.78H4514.37L4187.14 1742.05Z" fill="#D8BD03"/>
<path d="M7059.71 1015.8C7233.16 1290.85 7154.27 1613.98 7059.71 1766.91L6750.08 2286.78H7739.5V508.401H6750.08L7059.71 1015.8Z" fill="#D8BD03"/>
<rect x="4.5" y="5.5" width="7730" height="2789" stroke="#838383" stroke-width="9"/>
</svg>
