<svg width="116" height="128" viewBox="0 0 116 128" fill="none" xmlns="http://www.w3.org/2000/svg">
<path d="M79.9791 127.412L111.058 74.8415C116.583 65.4986 116.664 53.9323 111.252 44.5243L80.629 0.01117C80.629 0.01117 57.0193 0.00041 57.0093 0L57.0193 0.000409961L83.7661 44.1154C89.3627 53.651 89.2822 65.4577 83.5626 74.9127L52 127.412" fill="#CCB72B"/>
<path d="M53.654 127.421L84.7087 74.8609C90.2335 65.518 90.3142 53.9517 84.9026 44.5437L57.6729 0C57.6729 0 30.6697 0.0197599 30.6597 0.0193499L30.6697 0.01976L57.4165 44.1348C63.0131 53.6704 62.9325 65.4769 57.213 74.932L25.6504 127.431" fill="#978E59"/>
<path d="M27.873 127.401L58.9277 74.8416C64.4525 65.4987 64.5333 53.9324 59.1217 44.5244L31.6363 0.00373006L4.87869 0L4.88867 0.000400066L31.6355 44.1154C37.2321 53.6511 37.1516 65.4576 31.432 74.9127L0 127.412" fill="#686969"/>
</svg>
