<svg width="2908" height="2669" viewBox="0 0 2908 2669" fill="none" xmlns="http://www.w3.org/2000/svg">
<path d="M1897.09 2629H702.593L417.881 2155.05L115.093 1651C-20.9074 1385.8 58.426 1120.17 115.093 1020.5L417.881 511.845L530.593 322.5C630.593 138 857.593 40 1055.59 40H2200.09L2486.59 509.5L2773.09 979C2933.59 1233.5 2860.59 1532.5 2773.09 1674L2486.59 2155.05L2355.59 2375C2277.09 2494 2094.59 2629 1897.09 2629Z" stroke="#C4C4C4" stroke-width="9"/>
<circle cx="2207" cy="40" r="40" fill="#C4C4C4"/>
<circle cx="2868" cy="1296" r="40" fill="#C4C4C4"/>
<circle cx="40" cy="1296" r="40" fill="#C4C4C4"/>
<circle cx="702" cy="2629" r="40" fill="#C4C4C4"/>
<circle cx="702" cy="140" r="40" fill="#C4C4C4"/>
<circle cx="2207" cy="2514" r="40" fill="#C4C4C4"/>
</svg>
