<svg width="2925" height="2633" viewBox="0 0 2925 2633" fill="none" xmlns="http://www.w3.org/2000/svg">
<path d="M1953.09 2633H758.593L473.881 2159.05L171.093 1655C35.0926 1389.8 114.426 1124.17 171.093 1024.5L473.881 515.845L586.593 326.5C686.593 142 913.593 44 1111.59 44H2256.09L2542.59 513.5L2829.09 983C2989.59 1237.5 2916.59 1536.5 2829.09 1678L2542.59 2159.05L2411.59 2379C2333.09 2498 2150.59 2633 1953.09 2633Z" fill="#666666"/>
<path d="M1857.09 2589H662.593L377.881 2115.05L75.0926 1611C-60.9074 1345.8 18.426 1080.17 75.0926 980.5L377.881 471.845L490.593 282.5C590.593 98 817.593 0 1015.59 0H2160.09L2446.59 469.5L2733.09 939C2893.59 1193.5 2820.59 1492.5 2733.09 1634L2446.59 2115.05L2315.59 2335C2237.09 2454 2054.59 2589 1857.09 2589Z" fill="#D8BD03"/>
</svg>
