<svg width="2831" height="2589" viewBox="0 0 2831 2589" fill="none" xmlns="http://www.w3.org/2000/svg">
<path d="M76.0011 1611C-59.9989 1345.8 19.3344 1080.17 76.0011 980.5L378.789 471.845L0.000976562 469.5V2115.05H378.789L76.0011 1611Z" fill="#D8BD03"/>
<path d="M2734 939C2894.5 1193.5 2821.5 1492.5 2734 1634L2447.5 2115.05H2830V469.5H2447.5L2734 939Z" fill="#D8BD03"/>
<path d="M491.501 282.5C591.501 98 818.5 0 1016.5 0H0V469.5L378.789 471.845L491.501 282.5Z" fill="#FBFBFB"/>
<path d="M0 2589H663.5L378.789 2115.05H0V2589Z" fill="#FBFBFB"/>
<path d="M2316.5 2335C2238 2454 2055.5 2589 1858 2589H2830V2115.05H2447.5L2316.5 2335Z" fill="#FBFBFB"/>
<path d="M2830 0H2161L2447.5 469.5H2830V0Z" fill="#FBFBFB"/>
</svg>
