<svg xmlns="http://www.w3.org/2000/svg" xmlns:xlink="http://www.w3.org/1999/xlink" viewBox="0 0 60.92 98.43"><defs><style>.cls-1{fill:none;}.cls-2{clip-path:url(#clip-path);}.cls-3{fill:#d5b904;}</style><clipPath id="clip-path" transform="translate(-1.45 4.49)"><circle class="cls-1" cx="31.91" cy="31.91" r="31.91"/></clipPath></defs><g id="Capa_2" data-name="Capa 2"><g id="Capa_1-2" data-name="Capa 1"><g class="cls-2"><path class="cls-3" d="M34.19,92.81c-7.69,0-15.38,0-23.07,0a2.52,2.52,0,0,1-2.55-1.68c-.83-2-1.42-4-2.18-6s-.61-4.07-1.9-5.88c-.86-1.19-.69-3-.8-4.51-.19-2.7.94-5.18,1.37-7.77a18.79,18.79,0,0,0,.54-3.87c-.19-5.06.94-9.95,2.08-14.79A47.7,47.7,0,0,0,9.09,41.9a5.22,5.22,0,0,1,4.25-4.8,37.5,37.5,0,0,0,4.79-2.05c1.23-.53,2.33-1.36,3.55-1.91,1.95-.88,2.77-2.66,3.62-4.39A2.47,2.47,0,0,0,25,26.46a5.12,5.12,0,0,1-.85-2.69,1,1,0,0,0-.68-1,2.2,2.2,0,0,1-1.31-1.86,11.8,11.8,0,0,1,.19-4.84,13.26,13.26,0,0,0,.41-3.77c0-2.68.85-5,3.19-6.56A8,8,0,0,1,28,4.83a7.87,7.87,0,0,0,2.41-1,1.44,1.44,0,0,1,.9-.24c3.14.43,6.27.91,8.86,3a6.63,6.63,0,0,1,2.28,5.62c0,3.16-.09,6.32-.23,9.48a3,3,0,0,1-1.77,2.51,2.25,2.25,0,0,0-.71,3.39c2.2,3.53,5.86,5,9.36,6.56,2.5,1.13,4.92,2.37,7.31,3.7a3.74,3.74,0,0,1,1.75,2.58,13,13,0,0,1,.41,4.36,16.73,16.73,0,0,0,.52,4.68,32.9,32.9,0,0,1,.35,5.31C59.77,62,59,69.08,58.12,76.17a15.16,15.16,0,0,1-1,3.43,3.48,3.48,0,0,0,0,2.54A24.89,24.89,0,0,1,59,90.7c0,2,0,2.12-1.93,2.12H34.19ZM16,79.5c.68-1.63,1-3.39,1.67-5,1-2.52,1.2-4.77-.49-7a6.89,6.89,0,0,1-.23,1c-.59,1.55,0,3.14-.15,4.72C16.52,75.25,15.27,77.21,16,79.5Z" transform="translate(-1.45 4.49)"/><image width="255" height="412" transform="translate(0) scale(0.24)" /></g></g></g></svg>