<svg width="1067" height="1818" viewBox="0 0 1067 1818" fill="none" xmlns="http://www.w3.org/2000/svg">
<g clip-path="url(#clip0)">
<path d="M1054.26 1623.84H1044.7V1610.62L1037.47 1623.48H1033.18L1025.94 1610.62V1623.84H1016.39V1591.77H1024.51L1035.32 1611.16L1046.13 1591.77H1054.26V1623.84ZM1011.83 1600.97H1001.38V1623.84H991.818V1600.97H981.457V1591.77H1011.83V1600.97Z" fill="white"/>
<path d="M4.7 4.70227V1526.57L533.225 1811.13L1061.75 1526.57V4.70227H4.7Z" fill="#002171" stroke="white" stroke-width="9.4"/>
<path d="M10 1067H1057V9H10V1067Z" fill="#E60000"/>
<path d="M10 1067H1057V9H10V1067Z" stroke="black"/>
<path d="M444.472 1522.49V1545.07H460.672C463.984 1545.07 466.683 1544.09 468.773 1542.15C470.86 1540.21 471.904 1537.44 471.904 1533.83C471.904 1530.24 470.86 1527.44 468.773 1525.46C466.683 1523.48 463.984 1522.49 460.672 1522.49H444.472ZM427.84 1507.81H462.833C470.679 1507.81 476.981 1510.11 481.732 1514.72C486.485 1519.33 488.86 1525.7 488.86 1533.83C488.86 1541.97 486.485 1548.34 481.732 1552.95C476.981 1557.56 470.679 1559.86 462.833 1559.86H444.58V1588.59H427.84V1507.81Z" fill="white"/>
<path d="M521.606 1543.99C518.221 1543.99 515.503 1544.98 513.451 1546.96C511.399 1548.94 510.265 1551.69 510.05 1555.22H532.514C532.369 1551.69 531.379 1548.94 529.543 1546.96C527.707 1544.98 525.062 1543.99 521.606 1543.99ZM548.39 1565.69H510.05C510.193 1569.22 511.291 1571.99 513.343 1574.01C515.395 1576.03 518.186 1577.03 521.714 1577.03C527.33 1577.03 530.747 1574.98 531.973 1570.88L547.85 1571.63C546.841 1576.96 543.943 1581.32 539.155 1584.7C534.366 1588.09 528.695 1589.78 522.145 1589.78C513.506 1589.78 506.539 1587.15 501.247 1581.89C495.955 1576.64 493.309 1569.58 493.309 1560.73C493.309 1551.8 495.937 1544.73 501.193 1539.5C506.449 1534.28 513.29 1531.67 521.714 1531.67C529.85 1531.67 536.329 1534.14 541.153 1539.07C545.975 1544 548.39 1550.79 548.39 1559.43V1565.69Z" fill="white"/>
<path d="M589.98 1532.21V1547.44C585.444 1547.44 581.843 1548.61 579.179 1550.95C576.515 1553.29 575.184 1556.41 575.184 1560.29V1588.59H559.416V1532.75H574.644V1539.13C577.596 1534.52 582.707 1532.21 589.98 1532.21Z" fill="white"/>
<path d="M628.869 1524.01H616.558L625.737 1503.38H643.45L628.869 1524.01ZM647.554 1588.59H632.649V1582.97C629.841 1587.51 625.015 1589.78 618.177 1589.78C611.769 1589.78 606.73 1587.83 603.058 1583.95C599.386 1580.06 597.549 1574.69 597.549 1567.85V1532.75H613.317V1564.51C613.317 1571.56 616.303 1575.09 622.282 1575.09C625.231 1575.09 627.555 1574.1 629.247 1572.12C630.938 1570.14 631.786 1567.53 631.786 1564.29V1532.75H647.554V1588.59Z" fill="white"/>
<path d="M114.756 1195.56C128.74 1195.56 140.723 1199.46 150.704 1207.26C160.684 1215.07 166.688 1225.6 168.716 1238.88L144.244 1241.01C142.621 1233.1 139.152 1227.02 133.832 1222.77C128.512 1218.51 121.9 1216.38 113.996 1216.38C103.964 1216.38 95.9321 1219.8 89.9041 1226.64C83.8748 1233.48 80.8601 1242.63 80.8601 1254.08C80.8601 1266.03 83.9761 1275.31 90.2081 1281.89C96.4401 1288.48 104.42 1291.77 114.148 1291.77C122.052 1291.77 128.664 1289.7 133.984 1285.54C139.304 1281.39 142.724 1275.41 144.244 1267.61L168.868 1269.73C166.74 1282.91 160.711 1293.35 150.78 1301.05C140.848 1308.75 128.892 1312.6 114.908 1312.6C97.8841 1312.6 83.9761 1307.33 73.1841 1296.79C62.3921 1286.25 56.9961 1272.01 56.9961 1254.08C56.9961 1236.04 62.3668 1221.78 73.1081 1211.29C83.8481 1200.8 97.7321 1195.56 114.756 1195.56Z" fill="white"/>
<path d="M222.217 1248.15C217.453 1248.15 213.629 1249.54 210.741 1252.33C207.853 1255.12 206.257 1258.99 205.953 1263.96H237.569C237.365 1258.99 235.973 1255.12 233.389 1252.33C230.805 1249.54 227.081 1248.15 222.217 1248.15ZM259.913 1278.7H205.953C206.155 1283.67 207.701 1287.57 210.589 1290.41C213.477 1293.24 217.403 1294.66 222.369 1294.66C230.273 1294.66 235.085 1291.77 236.809 1286L259.153 1287.06C257.733 1294.56 253.655 1300.69 246.917 1305.45C240.177 1310.22 232.197 1312.6 222.977 1312.6C210.817 1312.6 201.013 1308.9 193.565 1301.5C186.117 1294.11 182.393 1284.17 182.393 1271.71C182.393 1259.15 186.091 1249.19 193.489 1241.84C200.885 1234.5 210.513 1230.82 222.369 1230.82C233.819 1230.82 242.939 1234.29 249.729 1241.23C256.517 1248.18 259.913 1257.73 259.913 1269.89V1278.7Z" fill="white"/>
<path d="M319.799 1231.58V1253.01C313.415 1253.01 308.347 1254.66 304.599 1257.95C300.849 1261.25 298.975 1265.63 298.975 1271.1V1310.93H276.783V1232.34H298.215V1241.31C302.369 1234.83 309.563 1231.58 319.799 1231.58Z" fill="white"/>
<path d="M362.507 1251.49L362.355 1280.68C362.355 1284.73 363.47 1287.72 365.699 1289.65C367.927 1291.57 370.766 1292.53 374.211 1292.53C375.934 1292.53 378.214 1292.28 381.051 1291.77V1311.53C376.795 1312.14 372.691 1312.45 368.739 1312.45C359.822 1312.45 352.803 1310.24 347.687 1305.83C342.57 1301.43 340.062 1294.81 340.163 1286L340.315 1251.49H326.027V1232.34H340.467L340.619 1206.35H362.811L362.659 1232.34H381.051V1251.49H362.507Z" fill="white"/>
<path d="M418.138 1310.93H395.946V1232.34H418.138V1310.93ZM407.042 1193.28C410.79 1193.28 413.958 1194.57 416.542 1197.15C419.126 1199.74 420.418 1202.91 420.418 1206.65C420.418 1210.3 419.126 1213.42 416.542 1216C413.958 1218.59 410.79 1219.88 407.042 1219.88C403.293 1219.88 400.15 1218.59 397.618 1216C395.085 1213.42 393.818 1210.3 393.818 1206.65C393.818 1203.01 395.134 1199.87 397.772 1197.23C400.405 1194.6 403.494 1193.28 407.042 1193.28Z" fill="white"/>
<path d="M519.368 1310.93H497.176V1232.34H519.368V1310.93ZM508.274 1193.28C512.02 1193.28 515.19 1194.57 517.774 1197.15C520.358 1199.74 521.648 1202.91 521.648 1206.65C521.648 1210.3 520.358 1213.42 517.774 1216C515.19 1218.59 512.02 1219.88 508.274 1219.88C504.523 1219.88 501.38 1218.59 498.85 1216C496.315 1213.42 495.05 1210.3 495.05 1206.65C495.05 1203.01 496.364 1199.87 499 1197.23C501.635 1194.6 504.724 1193.28 508.274 1193.28ZM476.2 1191.91C479.036 1191.91 481.62 1192.06 483.952 1192.37V1211.52C482.13 1211.32 480.404 1211.21 478.784 1211.21C474.932 1211.21 471.767 1212.35 469.284 1214.63C466.8 1216.91 465.56 1219.93 465.56 1223.68V1232.34H483.802V1251.49H465.56V1310.93H443.522V1251.49H429.232V1232.34H443.522V1224.29C443.522 1214.46 446.484 1206.6 452.414 1200.73C458.34 1194.85 466.268 1191.91 476.2 1191.91Z" fill="white"/>
<path d="M576.52 1230.82C586.248 1230.82 594.532 1233.56 601.372 1239.03C608.212 1244.5 612.34 1251.9 613.76 1261.22L592.024 1263.05C591.516 1258.99 589.87 1255.78 587.084 1253.39C584.296 1251.01 580.776 1249.82 576.52 1249.82C571.25 1249.82 566.968 1251.75 563.676 1255.6C560.382 1259.45 558.736 1264.82 558.736 1271.71C558.736 1278.5 560.382 1283.82 563.676 1287.67C566.968 1291.52 571.25 1293.45 576.52 1293.45C580.876 1293.45 584.424 1292.31 587.16 1290.03C589.896 1287.75 591.568 1284.63 592.176 1280.68L613.76 1282.65C612.24 1291.88 608.084 1299.17 601.296 1304.54C594.506 1309.91 586.248 1312.6 576.52 1312.6C564.664 1312.6 554.986 1308.93 547.488 1301.58C539.988 1294.23 536.24 1284.28 536.24 1271.71C536.24 1259.04 539.988 1249.06 547.488 1241.77C554.986 1234.47 564.664 1230.82 576.52 1230.82Z" fill="white"/>
<path d="M670.911 1279.31L659.055 1280.07C651.455 1280.37 647.655 1283.11 647.655 1288.28C647.655 1293.04 650.695 1295.42 656.775 1295.42C660.928 1295.42 664.323 1294.31 666.959 1292.08C669.592 1289.85 670.911 1286.71 670.911 1282.65V1279.31ZM660.423 1230.82C671.063 1230.82 679.168 1233.51 684.743 1238.88C690.315 1244.25 693.103 1252.1 693.103 1262.44V1310.93H671.671V1304.54C666.503 1309.91 659.815 1312.6 651.607 1312.6C643.499 1312.6 637.115 1310.6 632.455 1306.59C627.792 1302.59 625.463 1296.84 625.463 1289.34C625.463 1274.35 635.951 1266.39 656.927 1265.48L670.911 1264.72V1261.68C670.911 1253.57 667.515 1249.52 660.727 1249.52C657.179 1249.52 654.468 1250.53 652.595 1252.56C650.719 1254.59 649.783 1257.02 649.783 1259.85L627.591 1258.94C627.591 1251.65 630.655 1245.14 636.787 1239.41C642.916 1233.69 650.795 1230.82 660.423 1230.82Z" fill="white"/>
<path d="M749.647 1230.82C759.375 1230.82 767.659 1233.56 774.499 1239.03C781.339 1244.5 785.467 1251.9 786.887 1261.22L765.151 1263.05C764.643 1258.99 762.997 1255.78 760.211 1253.39C757.423 1251.01 753.903 1249.82 749.647 1249.82C744.377 1249.82 740.095 1251.75 736.803 1255.6C733.509 1259.45 731.863 1264.82 731.863 1271.71C731.863 1278.5 733.509 1283.82 736.803 1287.67C740.095 1291.52 744.377 1293.45 749.647 1293.45C754.003 1293.45 757.551 1292.31 760.287 1290.03C763.023 1287.75 764.695 1284.63 765.303 1280.68L786.887 1282.65C785.367 1291.88 781.211 1299.17 774.423 1304.54C767.633 1309.91 759.375 1312.6 749.647 1312.6C737.791 1312.6 728.113 1308.93 720.615 1301.58C713.115 1294.23 709.367 1284.28 709.367 1271.71C709.367 1259.04 713.115 1249.06 720.615 1241.77C728.113 1234.47 737.791 1230.82 749.647 1230.82Z" fill="white"/>
<path d="M825.037 1310.93H802.845V1232.34H825.037V1310.93ZM813.941 1193.28C817.689 1193.28 820.857 1194.57 823.441 1197.15C826.025 1199.74 827.317 1202.91 827.317 1206.65C827.317 1210.3 826.025 1213.42 823.441 1216C820.857 1218.59 817.689 1219.88 813.941 1219.88C810.191 1219.88 807.049 1218.59 804.517 1216C801.983 1213.42 800.717 1210.3 800.717 1206.65C800.717 1203.01 802.033 1199.87 804.669 1197.23C807.303 1194.6 810.393 1193.28 813.941 1193.28Z" fill="white"/>
<path d="M892.067 1220.03H874.739L887.659 1191H912.587L892.067 1220.03ZM897.843 1255.67C894.295 1251.77 889.635 1249.82 883.859 1249.82C878.083 1249.82 873.421 1251.77 869.875 1255.67C866.327 1259.58 864.555 1264.92 864.555 1271.71C864.555 1278.5 866.327 1283.82 869.875 1287.67C873.421 1291.52 878.083 1293.45 883.859 1293.45C889.635 1293.45 894.295 1291.52 897.843 1287.67C901.388 1283.82 903.163 1278.5 903.163 1271.71C903.163 1264.92 901.388 1259.58 897.843 1255.67ZM853.839 1242.07C861.691 1234.57 871.699 1230.82 883.859 1230.82C896.019 1230.82 906.024 1234.57 913.879 1242.07C921.731 1249.57 925.659 1259.45 925.659 1271.71C925.659 1283.87 921.731 1293.73 913.879 1301.27C906.024 1308.82 896.019 1312.6 883.859 1312.6C871.699 1312.6 861.691 1308.82 853.839 1301.27C845.984 1293.73 842.059 1283.87 842.059 1271.71C842.059 1259.45 845.984 1249.57 853.839 1242.07Z" fill="white"/>
<path d="M984.633 1230.82C993.853 1230.82 1001.28 1233.66 1006.9 1239.33C1012.53 1245.01 1015.34 1252.86 1015.34 1262.89V1310.92H993.145V1267.15C993.145 1262.18 991.903 1258.33 989.421 1255.6C986.937 1252.86 983.569 1251.49 979.313 1251.49C974.955 1251.49 971.433 1252.94 968.749 1255.82C966.063 1258.71 964.721 1262.54 964.721 1267.3V1310.92H942.529V1232.34H963.505V1240.4C967.557 1234.01 974.601 1230.82 984.633 1230.82Z" fill="white"/>
<path d="M265.387 164.424V178.867C265.387 205.612 256.831 227.275 239.714 243.856C222.597 260.442 200.397 268.732 173.386 268.732C144.498 268.732 120.429 259.371 101.439 240.648C82.4499 221.659 73.0859 198.659 73.0859 171.646C73.0859 144.364 82.4499 121.364 101.171 102.374C120.162 83.3844 143.427 74.0231 171.246 74.0231C206.282 74.0231 236.771 91.1404 252.818 117.619L221.259 135.806C212.431 120.562 193.174 109.863 170.978 109.863C153.058 109.863 138.349 115.746 126.846 127.515C115.346 139.016 109.729 153.726 109.729 171.646C109.729 189.298 115.614 204.007 127.113 215.508C138.883 227.007 154.395 232.624 173.653 232.624C202.27 232.624 221.526 219.251 228.21 197.054H171.513V164.424H265.387Z" fill="white"/>
<path d="M320.658 154.26C326.758 137.142 342.004 128.585 359.282 128.585V167.097C349.372 165.761 340.224 167.898 332.349 173.517C324.473 179.133 320.658 188.226 320.658 201.064V264.986H287.884V131.26H320.658V154.26Z" fill="white"/>
<path d="M482.301 185.55C478.293 167.364 464.915 158.537 449.137 158.537C430.682 158.537 418.113 168.433 414.099 185.55H482.301ZM414.634 212.297C419.183 229.146 431.751 237.437 452.347 237.437C465.451 237.437 475.617 232.89 482.301 224.065L510.118 240.112C497.014 259.102 477.49 268.73 451.811 268.73C429.611 268.73 411.963 262.042 398.587 248.67C385.217 235.297 378.527 218.446 378.527 198.122C378.527 178.062 385.217 161.213 398.321 147.841C411.429 134.2 428.546 127.513 449.137 127.513C468.662 127.513 484.975 134.2 497.55 147.841C510.386 161.48 516.802 178.062 516.802 198.122C516.802 202.668 516.267 207.216 515.465 212.297H414.634Z" fill="white"/>
<path d="M604.004 235.832C614.706 235.832 623.53 232.357 630.484 225.402C637.703 218.18 641.182 209.088 641.182 198.122C641.182 187.156 637.703 178.062 630.484 171.109C623.53 163.888 614.706 160.41 604.004 160.41C593.308 160.41 584.479 163.888 577.528 171.109C570.572 178.062 567.095 187.156 567.095 198.122C567.095 209.088 570.572 218.18 577.528 225.402C584.479 232.357 593.308 235.832 604.004 235.832ZM641.182 131.258H675.683V264.985H641.182V249.205C630.752 262.31 616.31 268.73 597.588 268.73C579.668 268.73 564.424 262.042 551.583 248.404C539.014 234.764 532.594 217.913 532.594 198.122C532.594 178.33 539.014 161.748 551.583 148.109C564.424 134.466 579.668 127.513 597.588 127.513C616.31 127.513 630.752 133.932 641.182 147.038V131.258Z" fill="white"/>
<path d="M788.835 164.424H758.61V220.053C758.61 234.497 769.043 234.765 788.835 233.695V264.987C741.492 270.335 724.108 256.696 724.108 220.053V164.424H700.842V131.26H724.108V104.247L758.61 93.8147V131.26H788.835V164.424Z" fill="white"/>
<path d="M167.5 404.115C183.278 404.115 194.778 391.813 194.778 375.766C194.778 359.45 183.278 347.415 167.5 347.415H134.604V404.115H167.5ZM167.5 312.914C185.42 312.914 200.664 319.065 212.966 331.101C225.272 343.135 231.42 358.114 231.42 375.766C231.42 393.417 225.272 408.395 212.966 420.43C200.664 432.466 185.42 438.617 167.5 438.617H134.604V500.133H97.6943V312.914H167.5Z" fill="white"/>
<path d="M256.576 314.645H291.077V500.133H256.576V314.645Z" fill="white"/>
<path d="M392.447 470.978C403.147 470.978 411.972 467.502 418.927 460.549C426.146 453.326 429.624 444.234 429.624 433.269C429.624 422.302 426.146 413.209 418.927 406.256C411.972 399.034 403.147 395.557 392.447 395.557C381.751 395.557 372.922 399.034 365.971 406.256C359.015 413.209 355.538 422.302 355.538 433.269C355.538 444.234 359.015 453.326 365.971 460.549C372.922 467.502 381.751 470.978 392.447 470.978ZM429.624 366.405H464.126V500.132H429.624V484.352C419.195 497.457 404.752 503.877 386.031 503.877C368.111 503.877 352.866 497.189 340.026 483.55C327.456 469.91 321.035 453.061 321.035 433.269C321.035 413.477 327.456 396.894 340.026 383.254C352.866 369.613 368.111 362.66 386.031 362.66C404.752 362.66 419.195 369.078 429.624 382.185V366.405Z" fill="white"/>
<path d="M513.888 483.55C500.516 469.91 493.828 453.326 493.828 433.269C493.828 413.209 500.516 396.628 513.888 382.988C527.532 369.346 544.381 362.661 564.437 362.661C590.383 362.661 613.381 376.032 624.349 397.162L594.663 414.546C589.312 403.581 577.813 396.628 564.169 396.628C543.579 396.628 528.331 411.872 528.331 433.269C528.331 443.7 531.808 452.526 538.496 459.48C545.18 466.165 553.74 469.644 564.169 469.644C578.081 469.644 589.58 462.956 594.931 451.992L624.884 469.108C613.117 490.236 590.383 503.877 564.437 503.877C544.381 503.877 527.532 497.189 513.888 483.55Z" fill="white"/>
<path d="M747.658 420.697C743.649 402.509 730.273 393.684 714.494 393.684C696.039 393.684 683.47 403.58 679.457 420.697H747.658ZM679.991 447.442C684.539 464.292 697.109 472.582 717.703 472.582C730.809 472.582 740.974 468.037 747.658 459.212L775.475 475.258C762.371 494.249 742.847 503.877 717.169 503.877C694.973 503.877 677.321 497.189 663.945 483.817C650.573 470.444 643.885 453.593 643.885 433.269C643.885 413.209 650.573 396.36 663.678 382.986C676.786 369.345 693.903 362.66 714.494 362.66C734.019 362.66 750.333 369.345 762.906 382.986C775.743 396.626 782.159 413.209 782.159 433.269C782.159 437.814 781.625 442.362 780.822 447.442H679.991Z" fill="white"/>
<path d="M210.826 557.414V590.955H160.277V735.279H123.367V590.955H73.0859V557.414H210.826Z" fill="white"/>
<path d="M268.321 705.322C278.755 705.322 287.311 701.846 294.267 694.893C301.217 687.939 304.696 679.114 304.696 668.414C304.696 657.715 301.217 648.89 294.267 641.937C287.311 634.983 278.755 631.505 268.321 631.505C257.892 631.505 249.332 634.983 242.38 641.937C235.692 648.89 232.215 657.715 232.215 668.414C232.215 679.114 235.692 687.939 242.38 694.893C249.332 701.846 257.892 705.322 268.321 705.322ZM268.321 739.023C248.533 739.023 231.68 732.335 218.04 718.695C204.401 705.057 197.712 688.205 197.712 668.414C197.712 648.622 204.401 632.041 218.04 618.401C231.68 604.759 248.533 597.806 268.321 597.806C288.113 597.806 304.963 604.759 318.603 618.401C332.245 632.041 339.197 648.622 339.197 668.414C339.197 688.205 332.245 705.057 318.603 718.695C304.963 732.335 288.113 739.023 268.321 739.023Z" fill="white"/>
<path d="M130.567 981.363L78.1455 794.145H116.928L152.763 932.955L191.812 794.145H223.372L262.688 932.955L298.528 794.145H337.311L284.888 981.363H242.896L207.592 857.798L172.555 981.363H130.567Z" fill="white"/>
<path d="M404.728 951.408C415.162 951.408 423.718 947.932 430.672 940.979C437.624 934.025 441.103 925.199 441.103 914.5C441.103 903.801 437.624 894.976 430.672 888.023C423.718 881.069 415.162 877.591 404.728 877.591C394.299 877.591 385.738 881.069 378.787 888.023C372.099 894.976 368.62 903.801 368.62 914.5C368.62 925.199 372.099 934.025 378.787 940.979C385.738 947.932 394.299 951.408 404.728 951.408ZM404.728 985.109C384.94 985.109 368.087 978.421 354.447 964.781C340.808 951.143 334.119 934.291 334.119 914.5C334.119 894.708 340.808 878.127 354.447 864.487C368.087 850.845 384.94 843.892 404.728 843.892C424.52 843.892 441.37 850.845 455.01 864.487C468.652 878.127 475.604 894.708 475.604 914.5C475.604 934.291 468.652 951.143 455.01 964.781C441.37 978.421 424.52 985.109 404.728 985.109Z" fill="white"/>
<path d="M534.458 870.638C540.878 853.521 556.926 844.962 575.113 844.962V883.474C564.68 882.139 555.053 884.277 546.761 889.895C538.472 895.511 534.458 904.605 534.458 917.442V981.363H499.957V847.638H534.458V870.638Z" fill="white"/>
<path d="M723.825 981.363H683.705L635.029 920.651V981.363H600.527V794.145H635.029V906.477L681.03 847.637H722.219L668.461 913.697L723.825 981.363Z" fill="white"/>
<path d="M766.657 955.626C770.063 955.626 771.831 954.126 771.831 951.266V951.13C771.831 947.997 769.924 946.907 766.657 946.907H762.841V955.626H766.657ZM756.303 941.866H766.791C773.74 941.866 778.231 944.729 778.231 950.857V950.995C778.231 955.49 775.647 957.941 772.103 959.031L780.005 971.698H773.196L765.975 960.121H762.841V971.698H756.303V941.866ZM791.447 957.123C791.447 942.277 781.093 931.923 766.657 931.923C752.216 931.923 741.861 942.413 741.861 957.259C741.861 972.243 752.759 982.323 766.657 982.323C780.683 982.323 791.447 971.973 791.447 957.123ZM736.416 957.259C736.416 940.505 749.764 927.021 766.657 927.021C783.816 927.021 796.893 940.369 796.893 957.123C796.893 974.151 783.544 987.229 766.657 987.229C749.897 987.229 736.416 974.287 736.416 957.259Z" fill="white"/>
<path d="M173.556 1409.93H185.908L179.77 1388.3L173.556 1409.93ZM170.409 1375.24H191.257L209.116 1431.49H192.044L189.054 1421.03H170.409L167.418 1431.49H152.392L170.409 1375.24Z" fill="white"/>
<path d="M244.277 1411.19V1410.56C244.277 1403.32 241.13 1399.86 236.174 1399.86C231.06 1399.86 227.992 1403.56 227.992 1410.48V1411.11C227.992 1418.11 231.06 1421.65 236.174 1421.65C241.445 1421.65 244.277 1417.96 244.277 1411.19ZM228.385 1425.12V1431.49H214.304V1372.25H228.385V1396.48C230.746 1392.55 234.994 1389.24 241.209 1389.24C250.806 1389.24 258.596 1396.48 258.596 1410.56V1411.19C258.596 1425.35 250.806 1432.43 241.13 1432.43C234.994 1432.43 230.43 1429.52 228.385 1425.12Z" fill="white"/>
<path d="M264.886 1390.34H278.968V1398.52C281.564 1392.39 285.891 1389.71 292.263 1389.79V1402.93C283.688 1402.7 278.968 1405.37 278.968 1411.98V1431.49H264.886V1390.34Z" fill="white"/>
<path d="M310.51 1429.21L330.178 1408.36C335.763 1402.38 339.462 1397.58 339.462 1392.86C339.462 1389.08 337.494 1386.57 333.482 1386.57C329.47 1386.57 326.952 1389.01 326.244 1395.69H311.611C312.16 1381.61 320.658 1374.45 334.268 1374.45C348.038 1374.45 355.354 1381.85 355.354 1392.23C355.354 1399.94 351.027 1405.76 344.732 1411.82L336.866 1419.45H355.747V1431.49H310.51V1429.21Z" fill="white"/>
<path d="M396.497 1404.43V1402.14C396.497 1391.84 393.507 1386.65 386.662 1386.65C379.897 1386.65 376.827 1391.76 376.827 1402.14V1404.5C376.827 1414.97 379.897 1419.92 386.819 1419.92C393.743 1419.92 396.497 1414.81 396.497 1404.43ZM360.699 1404.58V1402.22C360.699 1384.44 371.793 1374.45 386.662 1374.45C401.453 1374.45 412.625 1383.65 412.625 1401.91V1404.11C412.625 1421.97 402.398 1432.43 386.347 1432.43C370.613 1432.43 360.699 1422.28 360.699 1404.58Z" fill="white"/>
<path d="M416.08 1429.21L435.749 1408.36C441.335 1402.38 445.032 1397.58 445.032 1392.86C445.032 1389.08 443.065 1386.57 439.052 1386.57C435.041 1386.57 432.523 1389.01 431.815 1395.69H417.181C417.732 1381.61 426.229 1374.45 439.84 1374.45C453.608 1374.45 460.925 1381.85 460.925 1392.23C460.925 1399.94 456.597 1405.76 450.304 1411.82L442.436 1419.45H461.319V1431.49H416.08V1429.21Z" fill="white"/>
<path d="M476.654 1391.13L465.955 1397.74V1384.29L478.856 1375.24H492.783V1431.49H476.654V1391.13Z" fill="white"/>
<path d="M518.346 1403.72H540.374V1414.34H518.346V1403.72Z" fill="white"/>
<path d="M582.065 1409.93H594.417L588.281 1388.3L582.065 1409.93ZM578.918 1375.24H599.766L617.626 1431.49H600.553L597.564 1421.03H578.918L575.928 1431.49H560.902L578.918 1375.24Z" fill="white"/>
<path d="M652.787 1411.19V1410.56C652.787 1403.32 649.641 1399.86 644.683 1399.86C639.57 1399.86 636.502 1403.56 636.502 1410.48V1411.11C636.502 1418.11 639.57 1421.65 644.683 1421.65C649.955 1421.65 652.787 1417.96 652.787 1411.19ZM636.895 1425.12V1431.49H622.812V1372.25H636.895V1396.48C639.255 1392.55 643.503 1389.24 649.718 1389.24C659.317 1389.24 667.106 1396.48 667.106 1410.56V1411.19C667.106 1425.35 659.317 1432.43 649.641 1432.43C643.503 1432.43 638.941 1429.52 636.895 1425.12Z" fill="white"/>
<path d="M673.395 1390.34H687.479V1398.52C690.075 1392.39 694.401 1389.71 700.773 1389.79V1402.93C692.199 1402.7 687.479 1405.37 687.479 1411.98V1431.49H673.395V1390.34Z" fill="white"/>
<path d="M719.02 1429.21L738.689 1408.36C744.274 1402.38 747.972 1397.58 747.972 1392.86C747.972 1389.08 746.005 1386.57 741.992 1386.57C737.981 1386.57 735.462 1389.01 734.754 1395.69H720.121C720.672 1381.61 729.169 1374.45 742.78 1374.45C756.548 1374.45 763.865 1381.85 763.865 1392.23C763.865 1399.94 759.537 1405.76 753.244 1411.82L745.376 1419.45H764.258V1431.49H719.02V1429.21Z" fill="white"/>
<path d="M805.006 1404.43V1402.14C805.006 1391.84 802.017 1386.65 795.172 1386.65C788.406 1386.65 785.337 1391.76 785.337 1402.14V1404.5C785.337 1414.97 788.406 1419.92 795.329 1419.92C802.253 1419.92 805.006 1414.81 805.006 1404.43ZM769.209 1404.58V1402.22C769.209 1384.44 780.302 1374.45 795.172 1374.45C809.962 1374.45 821.134 1383.65 821.134 1401.91V1404.11C821.134 1421.97 810.908 1432.43 794.857 1432.43C779.122 1432.43 769.209 1422.28 769.209 1404.58Z" fill="white"/>
<path d="M824.59 1429.21L844.259 1408.36C849.845 1402.38 853.542 1397.58 853.542 1392.86C853.542 1389.08 851.575 1386.57 847.562 1386.57C843.551 1386.57 841.033 1389.01 840.325 1395.69H825.691C826.242 1381.61 834.739 1374.45 848.35 1374.45C862.118 1374.45 869.435 1381.85 869.435 1392.23C869.435 1399.94 865.107 1405.76 858.814 1411.82L850.946 1419.45H869.829V1431.49H824.59V1429.21Z" fill="white"/>
<path d="M873.361 1429.21L893.029 1408.36C898.615 1402.38 902.313 1397.58 902.313 1392.86C902.313 1389.08 900.345 1386.57 896.333 1386.57C892.321 1386.57 889.804 1389.01 889.096 1395.69H874.463C875.012 1381.61 883.509 1374.45 897.12 1374.45C910.889 1374.45 918.205 1381.85 918.205 1392.23C918.205 1399.94 913.879 1405.76 907.584 1411.82L899.717 1419.45H918.599V1431.49H873.361V1429.21Z" fill="white"/>
</g>
<defs>
<clipPath id="clip0">
<rect width="1066.67" height="1817.33" fill="white"/>
</clipPath>
</defs>
</svg>
